<?xml version="1.0" standalone="no"?>
<!DOCTYPE svg PUBLIC "-//W3C//DTD SVG 1.1//EN" "http://www.w3.org/Graphics/SVG/1.1/DTD/svg11.dtd" >
<svg xmlns="http://www.w3.org/2000/svg">
<metadata></metadata>
<defs>
<font id="hp_simplifiedbold_italic" horiz-adv-x="1097" >
<font-face units-per-em="2048" ascent="1665" descent="-383" />
<missing-glyph horiz-adv-x="421" />
<glyph unicode="&#xfb01;" horiz-adv-x="1216" d="M-119 -254q0 35 15 90l18 66q12 -2 24.5 -2h24.5q47 0 86 14t68.5 50t52.5 95.5t39 149.5l106 594h-45q-63 0 -63 53q0 10 4 36t8 50l25 121h123l14 70q14 76 44 141t76 114.5t109.5 78t145.5 28.5q41 0 76.5 -7t58.5 -18q47 -18 47 -63q0 -25 -6 -54.5t-10 -54.5 l-19 -77q-10 2 -27.5 4t-33.5 2q-49 0 -84 -26.5t-47 -92.5l-11 -45h533q49 0 61.5 -17.5t12.5 -37.5q0 -10 -2 -27.5t-5.5 -37t-7.5 -38t-6 -28.5l-178 -877h-250q-47 0 -59.5 17.5t-12.5 37.5q0 18 7.5 59.5t13.5 69.5l125 619h-279l-129 -686q-25 -135 -75 -226.5 t-112.5 -146.5t-134 -79.5t-141.5 -24.5q-20 0 -50.5 3t-59.5 14t-49.5 32.5t-20.5 56.5zM1010 1284q0 102 56 148.5t155 46.5q162 0 161 -117q0 -98 -55 -146.5t-153 -48.5q-80 0 -122 31t-42 86z" />
<glyph unicode="&#xfb02;" horiz-adv-x="1308" d="M-119 -254q0 35 15 90l18 66q12 -2 24.5 -2h24.5q47 0 86 14t68.5 50t52.5 95.5t39 149.5l106 594h-45q-63 0 -63 53q0 10 4 36t8 50l25 121h123l14 70q14 76 44 141t76 114.5t109.5 78t145.5 28.5q41 0 76.5 -7t58.5 -18q47 -18 47 -65q0 -25 -6 -54.5t-10 -54.5 l-17 -75q-20 4 -33.5 5t-29.5 1q-49 0 -83 -28t-48 -91l-11 -45h285l84 407h248q74 0 74 -53q0 -16 -3.5 -33.5t-7.5 -42.5l-196 -974q-4 -18 -6 -38t-2 -34q0 -29 15 -39t36 -10h33q33 0 46 -13.5t17 -56.5l12 -153q-6 -4 -28.5 -10.5t-56 -14.5t-77 -13t-90.5 -5 q-49 0 -96 11t-82 37.5t-56.5 70.5t-21.5 108q0 41 6.5 91t16.5 95l82 410h-279l-129 -686q-25 -135 -75 -226.5t-112.5 -146.5t-134 -79.5t-141.5 -24.5q-20 0 -50.5 3t-59.5 14t-49.5 32.5t-20.5 56.5z" />
<glyph unicode="&#xfb03;" horiz-adv-x="1830" d="M-119 -254q0 35 15 90l18 66q12 -2 24.5 -2h24.5q47 0 86 14t68.5 50t52.5 95.5t39 149.5l106 594h-45q-63 0 -63 53q0 10 4 36t8 50l25 121h123l14 70q14 76 44 141t76 114.5t109.5 78t145.5 28.5q41 0 84 -8t65 -19q43 -23 43 -61q0 -23 -8 -58.5t-14 -64.5l-15 -63 q-14 4 -30.5 6t-32.5 2q-49 0 -86 -25.5t-47 -79.5l-13 -61h279l14 70q14 76 44 141t76 114.5t109.5 78t145.5 28.5q41 0 80 -8t61 -19q47 -18 48 -63q0 -25 -6.5 -54.5t-10.5 -54.5l-16 -77q-12 4 -32.5 6t-37.5 2q-49 0 -84 -26.5t-47 -92.5l-10 -45h532q49 0 61.5 -17.5 t12.5 -37.5q0 -10 -2 -27.5t-5 -37t-7 -38t-6 -28.5l-179 -877h-249q-47 0 -59.5 17.5t-12.5 37.5q0 18 7 59.5t13 69.5l125 619h-278l-135 -719q-25 -133 -69 -219t-101.5 -136.5t-123 -69.5t-134.5 -19q-20 0 -49 3t-55 14t-43 32.5t-17 56.5t14 90l18 66q12 -2 22.5 -2 h22.5q39 0 71 14t55.5 47t41 86t31.5 131l113 625h-277l-129 -686q-25 -135 -75 -226.5t-112.5 -146.5t-134 -79.5t-141.5 -24.5q-20 0 -50.5 3t-59.5 14t-49.5 32.5t-20.5 56.5zM1624 1284q0 102 56.5 148.5t154.5 46.5q162 0 162 -117q0 -98 -55.5 -146.5t-153.5 -48.5 q-80 0 -122 31t-42 86z" />
<glyph unicode="&#xfb04;" horiz-adv-x="1923" d="M-119 -254q0 35 15 90l18 66q12 -2 24.5 -2h24.5q47 0 86 14t68.5 50t52.5 95.5t39 149.5l106 594h-45q-63 0 -63 53q0 10 4 36t8 50l25 121h123l14 70q14 76 44 141t76 114.5t109.5 78t145.5 28.5q41 0 83 -8t66 -19q43 -20 43 -61q0 -23 -8 -58.5t-14 -64.5l-15 -63 q-16 4 -31.5 6t-31.5 2q-49 0 -86 -25.5t-47 -79.5l-13 -61h279l14 70q14 76 44 141t76 114.5t109.5 78t145.5 28.5q41 0 77 -7t58 -18q47 -18 47 -63q0 -25 -6 -54.5t-10 -54.5l-16 -77q-35 6 -64 6q-49 0 -83 -28t-48 -91l-10 -45h284l84 407h248q74 0 74 -53 q0 -16 -3 -33.5t-7 -42.5l-197 -974q-4 -18 -6 -38t-2 -34q0 -29 15.5 -39t35.5 -10h33q33 0 46 -13.5t17 -56.5l13 -153q-6 -4 -29 -10.5t-56.5 -14.5t-76.5 -13t-90 -5q-49 0 -96.5 11t-82 37.5t-56 70.5t-21.5 108q0 41 6 91t16 95l82 410h-278l-135 -719 q-25 -133 -69 -219t-101.5 -136.5t-123 -69.5t-134.5 -19q-23 0 -51.5 3t-53.5 14t-42 32.5t-17 56.5t14 90l18 66q12 -2 22.5 -2h22.5q39 0 71 14t55.5 47t41 86t31.5 131l113 625h-277l-129 -686q-25 -135 -75 -226.5t-112.5 -146.5t-134 -79.5t-141.5 -24.5 q-20 0 -50.5 3t-59.5 14t-49.5 32.5t-20.5 56.5z" />
<glyph unicode="&#xd;" horiz-adv-x="421" />
<glyph horiz-adv-x="0" />
<glyph horiz-adv-x="0" />
<glyph unicode=" "  horiz-adv-x="421" />
<glyph unicode="&#x09;" horiz-adv-x="421" />
<glyph unicode="&#xa0;" horiz-adv-x="421" />
<glyph unicode="!" horiz-adv-x="626" d="M137 129q0 111 60.5 165t160.5 54q86 0 131.5 -40t45.5 -103q0 -111 -59 -166t-163 -55q-86 0 -131 41t-45 104zM289 561q0 23 6 89.5t15 152.5t21.5 178t26.5 164l56 274h272q37 0 49.5 -16.5t12.5 -40.5q0 -12 -5.5 -38t-11.5 -56.5t-13 -61t-11 -51.5 q-12 -55 -35 -140t-49.5 -178.5t-54 -184.5t-48.5 -158h-172q-33 0 -46 15t-13 52z" />
<glyph unicode="&#x22;" horiz-adv-x="841" d="M258 936q0 25 6 78t16.5 120.5t22.5 142.5t23 142h235q31 0 42 -12t11 -33q0 -10 -7 -42t-18 -76t-24.5 -96t-28 -102t-27.5 -93t-24 -72h-178q-49 0 -49 43zM678 936q0 25 6 78t16.5 120.5t22.5 142.5t23 142h235q31 0 42 -12t11 -33q0 -10 -7 -42t-18 -76t-24.5 -96 t-28 -102t-27.5 -93t-24 -72h-178q-49 0 -49 43z" />
<glyph unicode="#" horiz-adv-x="1140" d="M121 354q0 10 4 27.5t8 42.5l21 102h143l100 340h-92q-66 0 -65 54q0 10 3 27.5t7 41.5l20 103h195l84 292h199q27 0 36 -9t9 -25q0 -12 -3.5 -24.5t-7.5 -25.5l-59 -208h174l84 292h197q29 0 38 -9t9 -25q0 -12 -3 -24.5t-8 -25.5l-59 -208h51q63 0 64 -54 q0 -10 -4 -31.5t-9 -48.5l-18 -92h-152l-98 -340h101q63 0 63 -53q0 -23 -10 -80l-21 -92h-200l-84 -303h-199q-29 0 -38 10t-9 27q0 12 3 25.5t7 23.5l51 217h-166l-84 -303h-198q-29 0 -38 10t-9 27q0 12 3 25.5t7 23.5l61 217h-43q-66 0 -65 53zM557 526h174l90 340h-166 z" />
<glyph unicode="$" d="M166 137q0 18 7 48t13 51l31 96q41 -23 117 -47.5t172 -34.5l100 352q-59 29 -112.5 62.5t-95.5 77.5t-66.5 100.5t-24.5 132.5q0 92 38 168t102.5 131t152.5 85t188 30h12.5t24.5 -3l54 187h92q25 0 34 -9.5t9 -25.5q0 -8 -4 -29l-41 -141q29 -6 53.5 -13t46.5 -16 q51 -20 79 -39.5t28 -52.5q0 -18 -8.5 -45.5t-16.5 -48.5l-33 -80q-20 10 -79.5 30.5t-133.5 33.5l-90 -316q141 -72 218 -156.5t77 -224.5q0 -109 -42 -191.5t-114.5 -138t-168 -84t-201.5 -28.5l-56 -199h-92q-25 0 -34 9.5t-9 25.5q0 8 4 29l41 147q-57 10 -100 20.5 t-64 18.5q-51 18 -79.5 36.5t-28.5 51.5zM600 997q0 -37 22.5 -62.5t63.5 -47.5l72 258q-78 -8 -118 -47.5t-40 -100.5zM655 250q66 10 111 46t45 114q0 66 -78 120z" />
<glyph unicode="%" horiz-adv-x="1732" d="M266 948q0 86 24.5 170t75 149.5t125 106.5t173.5 41q121 0 197.5 -81t76.5 -214q0 -86 -24.5 -170t-73.5 -151.5t-124 -108.5t-173 -41q-125 0 -201 84t-76 215zM360 43q0 10 7 22.5t16 22.5l1032 1298h174q29 0 42 -13t13 -30q0 -10 -7 -22t-15 -23l-1037 -1298h-170 q-29 0 -42 13.5t-13 29.5zM506 961q0 -16 1 -37t6 -39.5t17 -30.5t35 -12q33 0 57.5 28.5t41 70.5t23.5 87t7 80q0 16 -1 35.5t-6 37t-15 30t-31 12.5q-37 0 -63.5 -29t-42 -71t-22.5 -87t-7 -75zM1061 272q0 86 24.5 170t75 149.5t125 106.5t173.5 41q121 0 197.5 -81 t76.5 -214q0 -86 -24.5 -170t-73.5 -151.5t-124 -108.5t-173 -41q-125 0 -201 84t-76 215zM1301 285q0 -16 1 -37t6 -39.5t17 -30.5t35 -12q33 0 57.5 28.5t41 70.5t23.5 87t7 80q0 16 -1 35.5t-6 37t-15 30t-31 12.5q-37 0 -63.5 -29t-42 -71t-22.5 -87t-7 -75z" />
<glyph unicode="&#x26;" horiz-adv-x="1290" d="M106 326q0 78 25 143.5t68 120.5t103 101t134 87q-43 61 -74.5 137t-31.5 160q0 70 28.5 136.5t84 118.5t137.5 85t188 33q72 0 139.5 -19.5t119.5 -57.5t84 -96t32 -138q0 -133 -81 -229.5t-212 -174.5q37 -47 77 -95t72 -95q23 41 36.5 88t23.5 94h207q45 0 45 -37 q0 -16 -6.5 -49t-22.5 -72q-35 -90 -67.5 -145t-67.5 -107q41 -80 71.5 -151.5t57.5 -163.5h-244q-53 0 -74 45q-6 14 -11 26.5t-15 34.5q-72 -55 -169 -93t-243 -38q-80 0 -154.5 19.5t-132 62.5t-92.5 110t-35 159zM434 377q0 -53 41 -96t107 -43q74 0 127 22.5t98 56.5 q-37 53 -93.5 126t-121.5 153q-76 -47 -117 -98.5t-41 -120.5zM625 1077q0 -41 18.5 -83t44.5 -79q92 47 132 93.5t40 105.5q0 35 -25.5 65.5t-82.5 30.5q-61 0 -94 -37t-33 -96z" />
<glyph unicode="'" horiz-adv-x="421" d="M258 936q0 25 6 78t16.5 120.5t22.5 142.5t23 142h235q31 0 42 -12t11 -33q0 -10 -7 -42t-18 -76t-24.5 -96t-28 -102t-27.5 -93t-24 -72h-178q-49 0 -49 43z" />
<glyph unicode="(" horiz-adv-x="694" d="M201 422q0 158 30.5 313.5t89 303t143.5 282.5t193 252h215q41 0 41 -37q0 -18 -9 -37.5t-19 -36.5q-76 -119 -140.5 -244.5t-112.5 -260t-75 -276.5t-27 -294q0 -131 20.5 -274.5t51.5 -280.5h-221q-43 0 -58.5 19.5t-29.5 58.5q-47 113 -69.5 237.5t-22.5 274.5z" />
<glyph unicode=")" horiz-adv-x="694" d="M37 -131q0 16 9 36.5t22 37.5q166 238 258 520t92 620q0 139 -16.5 253t-45.5 237h209q41 0 56.5 -19.5t31.5 -60.5q41 -104 63.5 -223t22.5 -256q0 -332 -104.5 -626t-327.5 -556h-227q-43 0 -43 37z" />
<glyph unicode="*" horiz-adv-x="847" d="M233 1049l66 165q10 23 19.5 42.5t31.5 19.5q16 0 31.5 -10.5t32.5 -20.5l125 -82v256h196q39 0 39 -33q0 -14 -5 -28.5t-9 -30.5l-60 -170l232 113l31 -152q4 -18 6 -29.5t2 -17.5q0 -29 -21.5 -37t-52.5 -12l-174 -21l151 -190l-153 -96q-35 -23 -51 -23t-24.5 15.5 t-14.5 31.5l-56 168l-157 -223l-125 109q-25 18 -25 41q0 25 41 53l144 125z" />
<glyph unicode="+" d="M233 606q0 10 4.5 36t8.5 50l28 142h277l61 311h244q23 0 33 -6t10 -27q0 -8 -2 -23.5t-4 -19.5l-47 -235h198q63 0 64 -56q0 -10 -4 -34.5t-8 -49.5l-27 -141h-278l-62 -311h-242q-23 0 -34 6t-11 26q0 8 2 22.5t5 20.5l45 236h-197q-63 0 -64 53z" />
<glyph unicode="," horiz-adv-x="583" d="M80 -227q0 16 9 32.5t24 36.5l116 172q-47 14 -73.5 44t-26.5 71q0 111 60.5 165t162.5 54q84 0 129 -39.5t45 -105.5q0 -90 -47 -168t-106 -156l-111 -141h-127q-25 0 -40 7t-15 28z" />
<glyph unicode="-" horiz-adv-x="768" d="M152 461q0 10 4 35.5t8 50.5l33 166h548q63 0 64 -54q0 -10 -4 -35.5t-8 -52.5l-33 -163h-547q-66 0 -65 53z" />
<glyph unicode="." horiz-adv-x="583" d="M121 129q0 111 60.5 165t162.5 54q86 0 130 -40t44 -103q0 -111 -58.5 -166t-162.5 -55q-86 0 -131 41t-45 104z" />
<glyph unicode="/" horiz-adv-x="923" d="M61 -131q0 10 4.5 23.5t8.5 23.5l774 1657h254q47 0 47 -39q0 -10 -4 -24.5t-8 -24.5l-775 -1655h-256q-45 0 -45 39z" />
<glyph unicode="0" d="M176 434q0 221 43 402.5t124 311.5t197.5 200.5t264.5 70.5q109 0 181.5 -38t117.5 -101t63.5 -147t18.5 -177q0 -221 -43 -402t-124 -311t-198 -201t-264 -71q-109 0 -181.5 38t-117.5 101.5t-63.5 147.5t-18.5 176zM487 416q0 -84 28 -122t81 -38q86 0 152 117 q55 100 90.5 255.5t35.5 346.5q0 84 -27.5 122t-80.5 38q-86 0 -152 -117q-55 -100 -91 -256t-36 -346z" />
<glyph unicode="1" d="M367 1026q0 12 3 33.5t7 38.5l31 145l41 17q68 27 146.5 55t152 51t134 38t91.5 15q39 0 54 -20.5t15 -46.5q0 -12 -3 -28.5t-7 -41.5l-262 -1282h-256q-39 0 -54.5 15.5t-15.5 43.5q0 20 10.5 80t24.5 125l168 783l-149 -43q-25 -8 -49.5 -14.5t-34.5 -6.5 q-27 0 -37 12.5t-10 30.5z" />
<glyph unicode="2" d="M100 55q0 16 7.5 49t15.5 64q25 104 77 191t118.5 158t141.5 125t142 97q133 82 190.5 145.5t57.5 131.5q0 70 -48 101.5t-134 31.5q-51 0 -94.5 -11.5t-77 -23.5t-59 -23.5t-40.5 -11.5q-49 0 -49 45q0 8 4 31t8 49l25 125q20 10 57 25.5t86.5 30t105.5 24.5t116 10 q88 0 166.5 -20.5t138 -63.5t95.5 -110.5t36 -161.5q0 -86 -31 -157.5t-83 -133t-119.5 -115t-141.5 -100.5q-141 -92 -216 -156.5t-91 -115.5h438q66 0 66 -54q0 -18 -5.5 -43.5t-9.5 -52.5l-28 -135h-803q-61 0 -62 55z" />
<glyph unicode="3" d="M117 113q0 16 6 39.5t22 70.5l25 82q55 -18 133 -33.5t168 -15.5q49 0 95 11.5t82 35t56.5 60t20.5 86.5q0 70 -48 99.5t-118 29.5h-61q-63 0 -64 49q0 10 4 29.5t11 48.5l30 137h105q117 0 184.5 50t67.5 130q0 133 -170 133q-47 0 -88 -8t-76 -19.5t-63.5 -19.5 t-49.5 -8q-45 0 -45 47q0 18 10 65l25 115q53 29 144 60.5t220 31.5q82 0 158 -19.5t134.5 -61.5t92 -106.5t33.5 -154.5q0 -127 -77.5 -224t-221.5 -144q57 -18 95 -49t61.5 -68t33 -76t9.5 -76q0 -106 -43 -192t-119 -147.5t-176 -94.5t-213 -33q-84 0 -165 12.5 t-161 47.5q-16 8 -41.5 28.5t-25.5 51.5z" />
<glyph unicode="4" d="M137 379q0 14 6.5 48t10.5 60l20 103q43 84 109.5 190.5t148.5 215t173 211t188 179.5h319q63 0 64 -51q0 -12 -4.5 -29.5t-8.5 -43.5l-141 -693h29q31 0 46 -14t15 -37q0 -14 -4 -41.5t-10 -60.5l-19 -90h-106l-66 -326h-217q-70 0 -69 55q0 10 4 36t8 46l37 189h-469 q-63 0 -64 53zM426 569h293l115 564q-43 -43 -96.5 -105.5t-109 -137.5t-107.5 -157t-95 -164z" />
<glyph unicode="5" d="M150 111q0 16 6 40.5t22 71.5l25 82q55 -18 133 -33.5t156 -15.5q55 0 104 12.5t86 38t58.5 66.5t21.5 100q0 66 -46 111t-163 45q-61 0 -121.5 -10.5t-99.5 -10.5q-49 0 -49 43q0 25 8 59.5t16 67.5l156 608h676q70 0 69 -53q0 -12 -3 -33.5t-7 -44.5l-31 -151h-485 l-66 -242q10 2 36 3t48 1q88 0 161 -21.5t125 -65.5t82 -110.5t30 -156.5q0 -109 -38 -206t-112 -171t-182.5 -118t-247.5 -44q-92 0 -165.5 15.5t-135.5 42.5q-16 8 -41.5 28.5t-25.5 51.5z" />
<glyph unicode="6" d="M203 424q0 172 40 349t127 320.5t226 234.5t338 91q80 0 147.5 -20.5t98.5 -42.5q18 -14 24 -27.5t6 -30.5q0 -14 -6 -39.5t-14 -50.5l-29 -92q-45 16 -93 28.5t-116 12.5q-152 0 -241.5 -84t-130.5 -250q98 78 239 78q70 0 127.5 -23.5t99 -68.5t65.5 -109.5t24 -144.5 q0 -121 -35 -226.5t-102.5 -184t-168 -125t-233.5 -46.5q-98 0 -172 35t-123 96.5t-73.5 143.5t-24.5 176zM514 393q0 -68 30.5 -114t96.5 -46q49 0 84 26t55.5 64.5t29.5 85t9 87.5q0 74 -36 113.5t-95 39.5q-45 0 -81 -14t-62 -33q-16 -59 -23.5 -115.5t-7.5 -93.5z" />
<glyph unicode="7" d="M256 57q0 41 21.5 93.5t50.5 109.5q55 106 118.5 219t131 222.5t135 211t129.5 187.5h-477q-66 0 -66 53q0 27 18 117l23 116h801q68 0 67 -51q0 -16 -2 -35.5t-6 -35.5l-26 -136q-90 -137 -168 -265t-150 -262t-140.5 -281.5t-137.5 -319.5h-248q-74 0 -74 57z" />
<glyph unicode="8" d="M156 338q0 125 65.5 229.5t210.5 163.5q-63 49 -96 114.5t-33 131.5q0 102 37 184t101.5 139.5t153.5 88t193 30.5q82 0 156 -22.5t129 -66.5t87 -109.5t32 -151.5q0 -133 -60 -218t-171 -132q72 -45 112.5 -116t40.5 -173q0 -104 -37 -188t-105.5 -144.5t-165.5 -92.5 t-216 -32q-76 0 -154 20.5t-140.5 65.5t-101 114t-38.5 165zM467 365q0 -27 8 -53.5t24.5 -47t44 -33t66.5 -12.5q88 0 138.5 61.5t50.5 153.5q0 68 -37 113t-107 45q-84 0 -136 -64.5t-52 -162.5zM592 985q0 -59 37 -99t96 -40q74 0 125 50t51 138q0 63 -32.5 105.5 t-104.5 42.5t-122 -54.5t-50 -142.5z" />
<glyph unicode="9" d="M127 94q0 14 6 40t14 50l29 92q45 -16 96.5 -28t118.5 -12q297 0 379 333q-98 -78 -240 -77q-70 0 -127 23.5t-99 68.5t-65.5 109.5t-23.5 144.5q0 121 35 226t102.5 184t168 125t233.5 46q98 0 171.5 -33.5t123 -92t74 -140.5t24.5 -176q0 -172 -41 -350t-129 -323.5 t-228.5 -238t-338.5 -92.5q-92 0 -156 21.5t-94 40.5q-20 14 -26.5 28.5t-6.5 30.5zM530 897q0 -74 36.5 -114t95.5 -40q45 0 80.5 14.5t62.5 33.5q16 59 23.5 115.5t7.5 92.5q0 68 -31 114t-96 46q-49 0 -84 -25.5t-55.5 -64.5t-30 -85t-9.5 -87z" />
<glyph unicode=":" horiz-adv-x="583" d="M121 129q0 111 60.5 165t162.5 54q86 0 130 -40t44 -103q0 -111 -58.5 -166t-162.5 -55q-86 0 -131 41t-45 104zM258 844q0 111 60.5 165t162.5 54q86 0 130 -40t44 -103q0 -111 -58.5 -166t-162.5 -55q-86 0 -131 41t-45 104z" />
<glyph unicode=";" horiz-adv-x="583" d="M80 -227q0 16 9 32.5t24 36.5l116 172q-47 14 -73.5 44t-26.5 71q0 111 60.5 165t162.5 54q84 0 129 -39.5t45 -105.5q0 -90 -47 -168t-106 -156l-111 -141h-127q-25 0 -40 7t-15 28zM258 844q0 111 60.5 165t162.5 54q86 0 130 -40t44 -103q0 -111 -58.5 -166 t-162.5 -55q-86 0 -131 41t-45 104z" />
<glyph unicode="&#x3c;" d="M258 596q0 18 6 47l33 166l711 311q12 6 32.5 13.5t34.5 7.5q29 0 29 -29q0 -8 -2 -17.5t-6 -33.5l-41 -205l-437 -170l314 -131q29 -10 40 -19.5t11 -29.5q0 -8 -2 -21.5t-4 -23.5l-47 -232l-623 312q-29 14 -39 23t-10 32z" />
<glyph unicode="=" d="M215 406q0 10 4 35.5t8 50.5l27 131h729q63 0 64 -56q0 -10 -4.5 -34.5t-8.5 -49.5l-26 -131h-727q-66 0 -66 54zM297 817q0 10 4 36t8 50l27 131h729q63 0 63 -55q0 -10 -4 -34.5t-8 -49.5l-26 -131h-728q-66 0 -65 53z" />
<glyph unicode="&#x3e;" d="M238 268q0 8 2 17.5t6 33.5l41 205l436 170l-313 131q-29 10 -40.5 19.5t-11.5 29.5q0 8 2 21.5t5 24.5l47 231l622 -311q29 -14 39 -23.5t10 -32.5q0 -20 -6 -47l-33 -166l-710 -311q-12 -6 -32.5 -13t-35.5 -7q-29 0 -28 28z" />
<glyph unicode="?" horiz-adv-x="888" d="M223 129q0 111 60.5 165t162.5 54q86 0 130.5 -40t44.5 -103q0 -111 -59 -166t-163 -55q-86 0 -131 41t-45 104zM295 1180q0 12 3 42.5t11 71.5l15 72q12 8 42.5 21.5t74.5 26.5t100.5 22.5t122.5 9.5q80 0 148.5 -21.5t119.5 -62.5t80.5 -101.5t29.5 -140.5 q0 -76 -20.5 -134t-57 -106.5t-88 -92.5t-112.5 -91q-35 -27 -67.5 -51t-58.5 -52t-44.5 -61.5t-24.5 -80.5h-145q-41 0 -67.5 14t-26.5 80q0 57 17.5 100t45 78t61 62.5t64.5 52.5q25 20 58.5 42.5t62.5 50t49.5 60.5t20.5 70q0 63 -43 89t-103 26q-31 0 -63.5 -7.5 t-62 -16.5t-53.5 -16.5t-38 -7.5q-51 0 -51 52z" />
<glyph unicode="@" horiz-adv-x="1812" d="M178 340q0 242 77 440.5t215 341t326.5 221t413.5 78.5q141 0 259 -39t204 -115.5t134 -188t48 -257.5q0 -133 -36.5 -262t-108.5 -230.5t-175 -163t-235 -61.5h-110q-33 0 -44 12.5t-20 37.5l-14 51q-49 -59 -105.5 -89t-132.5 -30q-123 0 -181 91t-58 247 q0 121 32.5 231.5t95 194.5t154 135t207.5 51q76 0 139.5 -15t98.5 -32q49 -23 70.5 -43t21.5 -67q0 -8 -5 -35t-9 -47l-70 -326q-8 -33 -14 -71t-10 -72q82 10 133 64t79.5 129t40 157t11.5 147q0 371 -426 371q-188 0 -328.5 -68.5t-234 -184.5t-140.5 -267.5t-47 -317.5 q0 -135 42 -223t114 -138t167 -69.5t204 -19.5q53 0 100 6t94 16q23 4 41 9.5t27 5.5q14 0 18 -10.5t8 -22.5l39 -172q-72 -27 -169 -41t-199 -14q-166 0 -302.5 39.5t-233.5 121.5t-151.5 205t-54.5 289zM903 442q0 -53 18.5 -81.5t55.5 -28.5q31 0 55.5 16.5t42.5 36.5 l90 416q-4 4 -14 7t-27 3q-57 0 -99 -41t-68.5 -99.5t-40 -121t-13.5 -107.5z" />
<glyph unicode="A" horiz-adv-x="1116" d="M49 51q0 27 6 51.5t17 53.5q113 340 245 647t293 616h328q41 0 61.5 -19.5t28.5 -58.5q12 -70 23.5 -159.5t18.5 -192t12 -215t5 -225.5q0 -135 -4 -270.5t-12 -278.5h-262q-37 0 -51.5 17.5t-14.5 50.5l2 34q2 25 6.5 61t7.5 70.5t5 66.5t2 48h-297q-31 -94 -58.5 -186 t-45.5 -162h-242q-41 0 -57.5 14.5t-16.5 36.5zM549 602h227q4 41 6 95.5t2 123.5q0 74 -3 169.5t-11 187.5q-78 -168 -130 -312.5t-91 -263.5z" />
<glyph unicode="B" horiz-adv-x="1122" d="M130 115.5q7 44.5 24 128.5l231 1155q82 20 172 31.5t209 11.5q80 0 159 -18.5t142 -58.5t103 -103.5t40 -153.5q0 -137 -66.5 -228.5t-185.5 -148.5q80 -37 121 -112.5t41 -169.5q0 -109 -43 -193t-116.5 -140.5t-172 -86t-210.5 -29.5h-390q-65 0 -65 49q0 22 7 66.5z M485 260h115q94 0 147.5 60.5t53.5 152.5q0 135 -152 135h-96zM602 850h103q92 0 138 59.5t46 149.5q0 59 -39 91t-105 32q-29 0 -50 -3t-27 -5z" />
<glyph unicode="C" horiz-adv-x="1064" d="M213 465q0 205 55.5 384t154.5 311t234 209t295 77q41 0 91.5 -6t93.5 -19.5t72.5 -33t29.5 -46.5q0 -23 -8 -50t-19 -60l-38 -111q-29 10 -77 19.5t-110 9.5q-102 0 -181 -56.5t-132 -147.5t-80 -206.5t-27 -236.5q0 -119 39 -174.5t137 -55.5q31 0 70 4.5t86 18.5 q10 4 22.5 7t22.5 2q27 0 37 -21t14 -47l33 -177q-53 -29 -148.5 -58.5t-226.5 -29.5q-209 0 -324.5 124t-115.5 370z" />
<glyph unicode="D" horiz-adv-x="1220" d="M125 59q0 20 11 80t24 125l223 1135q72 18 145.5 29.5t169.5 11.5q131 0 236.5 -33t179.5 -101.5t113 -173t39 -247.5q0 -203 -58.5 -367t-160 -278.5t-238.5 -177t-293 -62.5h-321q-39 0 -54.5 15.5t-15.5 43.5zM496 272h45q86 0 157.5 49.5t123.5 135.5t81 202.5 t29 253.5q0 53 -11.5 99.5t-35 81t-60.5 55t-90 20.5q-41 0 -61 -6z" />
<glyph unicode="E" horiz-adv-x="1034" d="M125 59q0 20 12.5 80t22.5 125l225 1155h735q63 0 64 -53q0 -10 -4 -35.5t-9 -50.5l-26 -143h-483l-52 -271h342q63 0 64 -53q0 -10 -4 -35.5t-8 -50.5l-29 -143h-422l-57 -301h415q63 0 64 -54q0 -10 -4 -35.5t-8 -50.5l-27 -143h-741q-39 0 -54.5 15.5t-15.5 43.5z" />
<glyph unicode="F" horiz-adv-x="987" d="M125 59q0 20 11 80t24 125l225 1155h723q63 0 63 -53q0 -10 -4 -35.5t-8 -50.5l-26 -143h-461l-54 -281h320q63 0 63 -53q0 -10 -4 -36t-8 -50l-28 -146h-400l-108 -571h-258q-39 0 -54.5 15.5t-15.5 43.5z" />
<glyph unicode="G" horiz-adv-x="1163" d="M213 475q0 215 56.5 393.5t157.5 307.5t241.5 199.5t308.5 70.5q37 0 87 -6t96 -19.5t78 -33t32 -46.5q0 -23 -7.5 -47t-17.5 -53l-41 -119q-29 10 -86 20.5t-119 10.5q-113 0 -194.5 -49t-136 -136t-80 -204t-25.5 -252q0 -47 8.5 -93t30 -82t60 -58.5t98.5 -22.5h39 t28 4l54 272h-66q-61 0 -61 52q0 10 3 31.5t7 43.5l24 140h353q63 0 63 -51q0 -10 -2 -26.5t-5 -34t-6 -32t-3 -16.5l-119 -596q-74 -31 -161 -50.5t-197 -19.5q-109 0 -200 33t-156.5 95.5t-103.5 156.5t-38 217z" />
<glyph unicode="H" horiz-adv-x="1208" d="M125 59q0 20 11 80t24 125l225 1155h258q39 0 54.5 -15t15.5 -44q0 -20 -12.5 -79.5t-24.5 -125.5l-53 -285h292l107 549h256q41 0 56.5 -15t15.5 -44q0 -20 -12.5 -79.5t-24.5 -125.5l-226 -1155h-256q-41 0 -56 15.5t-15 43.5q0 20 12 80l25 125l61 318h-295l-110 -582 h-258q-39 0 -54.5 15.5t-15.5 43.5z" />
<glyph unicode="I" horiz-adv-x="571" d="M125 59q0 20 11 80t24 125l225 1155h258q39 0 54.5 -15t15.5 -44q0 -20 -12.5 -79.5t-24.5 -125.5l-225 -1155h-256q-39 0 -54.5 15.5t-15.5 43.5z" />
<glyph unicode="J" horiz-adv-x="806" d="M51 86q0 18 3 37.5t22 77.5l28 86q29 -10 69 -20.5t87 -10.5q86 0 122 53t58 162l187 948h258q39 0 54 -15t15 -44q0 -20 -12 -79.5t-24 -125.5l-144 -731q-45 -229 -152.5 -340t-302.5 -111q-72 0 -128 13.5t-89 31.5q-51 31 -51 68z" />
<glyph unicode="K" horiz-adv-x="1136" d="M125 59q0 20 11 80t24 125l225 1155h258q39 0 54.5 -15t15.5 -44q0 -20 -12.5 -79.5t-24.5 -125.5l-49 -256q57 49 114.5 116.5t109.5 138.5t97 140.5t78 124.5h272q57 0 58 -47q0 -10 -4 -22.5t-13.5 -29.5t-25 -43t-39.5 -63q-70 -111 -182.5 -235.5t-235.5 -233.5 q49 -70 91 -163t76 -194t58.5 -201.5t38.5 -186.5h-284q-51 0 -69.5 27.5t-25.5 62.5q-8 39 -22 106.5t-35.5 145.5t-48.5 157t-60 140l-122 -639h-258q-39 0 -54.5 15.5t-15.5 43.5z" />
<glyph unicode="L" horiz-adv-x="948" d="M125 59q0 20 11 80t24 125l225 1155h258q39 0 54.5 -15t15.5 -44q0 -20 -12.5 -79.5t-24.5 -125.5l-168 -862h358q66 0 66 -53q0 -10 -4 -36l-8 -52l-31 -152h-694q-39 0 -54.5 15.5t-15.5 43.5z" />
<glyph unicode="M" horiz-adv-x="1484" d="M104 59q0 10 2.5 23.5t6.5 30.5q59 311 139 631.5t174 674.5h354q29 0 46.5 -15t19.5 -58q0 -18 1 -58.5t2 -93.5t1 -115.5v-124.5v-329l315 794h353q65 0 65 -57q0 -22 -6 -58t-10 -67q-12 -84 -31.5 -220t-45.5 -301t-57.5 -349.5t-68.5 -366.5h-258q-68 0 -68 57 q0 8 2.5 27t6.5 35q6 31 18 90t27.5 139t34 173t38 191.5t37 197t33.5 186.5l-313 -746h-189q-43 0 -58.5 18.5t-15.5 55.5l-4 672q-27 -111 -57.5 -257.5t-61 -297t-59 -294t-49.5 -247.5h-254q-31 0 -50.5 12.5t-19.5 46.5z" />
<glyph unicode="N" horiz-adv-x="1226" d="M127 59q0 20 11.5 80t23.5 125l221 1155h227q51 0 75 -14t38 -59q20 -72 44 -168.5t46.5 -202t44 -213t39.5 -201.5l168 858h231q37 0 52.5 -15t15.5 -44q0 -20 -12.5 -79.5t-22.5 -125.5l-221 -1155h-252q-35 0 -56.5 16.5t-29.5 57.5q-16 86 -37.5 197.5t-44 225 t-46.5 219t-44 181.5l-172 -897h-231q-37 0 -52.5 15.5t-15.5 43.5z" />
<glyph unicode="O" horiz-adv-x="1296" d="M213 502q0 211 47 385t133 298t205 192.5t262 68.5q117 0 206 -39t150.5 -109.5t93 -168t31.5 -214.5q0 -211 -47 -385t-133 -297.5t-205 -192.5t-262 -69q-117 0 -206 39t-150.5 109.5t-93 168t-31.5 214.5zM559 496q0 -43 7 -85t23.5 -74t46.5 -52.5t73 -20.5 q61 0 113 52.5t90 142.5t59.5 208.5t23.5 254.5q0 43 -7 85t-24.5 73.5t-46 52t-73.5 20.5q-61 0 -112.5 -52t-89.5 -142.5t-59.5 -209t-23.5 -253.5z" />
<glyph unicode="P" horiz-adv-x="1112" d="M121 59q0 20 11 80t24 125l229 1135q90 23 187.5 33t185.5 10t172 -18.5t149.5 -63.5t105.5 -121t40 -190q0 -106 -33 -209t-99.5 -184t-165 -131t-229.5 -50q-49 0 -93 5t-68 12l-99 -492h-248q-39 0 -54 15.5t-15 43.5zM588 756q41 -8 80 -8q61 0 103 26.5t67.5 68.5 t37 94t11.5 101q0 143 -154 144q-23 0 -39 -3t-22 -5z" />
<glyph unicode="Q" horiz-adv-x="1296" d="M211 502q0 211 47 385t133 298t205 192.5t262 68.5q117 0 206 -39t150.5 -109.5t93 -168t31.5 -214.5q0 -311 -99 -534t-271 -326q53 -66 96 -148.5t80 -180.5h-283q-37 0 -51 16t-37 57q-18 37 -39.5 87.5t-50.5 93.5q-115 2 -203 39.5t-147.5 106.5t-91 164t-31.5 212z M557 485q0 -43 7 -85t23.5 -73.5t46.5 -52t73 -20.5q61 0 113 54t90 145.5t59.5 212t23.5 256.5q0 43 -7 85t-24.5 73.5t-46 52t-73.5 20.5q-61 0 -112.5 -54.5t-89.5 -145.5t-59.5 -211.5t-23.5 -256.5z" />
<glyph unicode="R" horiz-adv-x="1132" d="M124 84.5l6 35t6 32t3 18.5l246 1229q80 20 172 31.5t184 11.5q109 0 198 -20.5t152.5 -67.5t98.5 -122t35 -181q0 -154 -75 -271.5t-204 -185.5q23 -49 48.5 -125t48 -159t39 -165t20.5 -145h-273q-41 0 -61 14.5t-25 53.5q-14 123 -38.5 243.5t-55.5 204.5h-108 l-103 -516h-250q-67 0 -67 59q0 8 3 25.5zM592 774h104q31 0 64 16.5t61.5 48t47 80t18.5 109.5q0 154 -148 154q-23 0 -41 -3t-26 -5z" />
<glyph unicode="S" horiz-adv-x="1079" d="M109 119q0 18 7 48t13 50l39 133q25 -12 60.5 -26.5t81.5 -27.5t100.5 -21.5t113.5 -8.5q31 0 69 6.5t71.5 21.5t57 44t23.5 76q0 53 -33.5 90t-111.5 78q-68 33 -129 70.5t-109.5 85.5t-77 112.5t-28.5 153.5q0 100 38 181t104.5 139t157.5 90t198 32q82 0 156.5 -14.5 t133.5 -40.5q61 -29 83 -53.5t22 -47.5q0 -14 -6 -38.5t-15 -47.5l-43 -117q-12 6 -42.5 18.5t-72.5 24t-91.5 20.5t-100.5 9q-80 0 -134 -32.5t-54 -100.5q0 -31 15.5 -54.5t44 -43t69.5 -40t90 -46.5q63 -35 114.5 -73t87.5 -85t54 -104.5t18 -133.5q0 -117 -43 -205.5 t-116.5 -148t-171.5 -90.5t-209 -31q-59 0 -112.5 7.5t-96.5 17.5t-74 19.5t-45 15.5q-51 18 -78.5 36.5t-27.5 51.5z" />
<glyph unicode="T" horiz-adv-x="1112" d="M293 1207q4 26 8 50l33 162h903q63 0 63 -53q0 -10 -4 -35.5t-8 -50.5l-31 -162h-321l-217 -1118h-256q-41 0 -56.5 15.5t-15.5 43.5q0 20 12.5 80t24.5 125l166 854h-240q-65 0 -65 51q0 12 4 38z" />
<glyph unicode="U" horiz-adv-x="1181" d="M180 334q0 41 6.5 101.5t20.5 125.5l170 858h264q41 0 56.5 -15t15.5 -44q0 -20 -12.5 -79.5t-24.5 -125.5l-135 -670q-6 -29 -10.5 -52t-4.5 -44q0 -53 31 -85t84 -32q76 0 114 57.5t60 162.5l182 927h265q41 0 55 -15t14 -44q0 -20 -11 -79.5t-24 -125.5l-122 -625 q-29 -141 -65 -245.5t-97.5 -174t-155.5 -103.5t-235 -34q-80 0 -159 16.5t-141.5 56.5t-101.5 109.5t-39 178.5z" />
<glyph unicode="V" horiz-adv-x="1118" d="M297 797q0 164 7 320.5t18 301.5h288q33 0 47.5 -16.5t14.5 -40.5q0 -20 -6 -82q-14 -162 -26.5 -370t-12.5 -425v-86t2 -86q51 129 101 269.5t97 283t88 283.5t74 270h281q39 0 51 -12t12 -33q0 -23 -22.5 -99.5t-62.5 -190t-94 -253t-116.5 -285t-130 -286.5 t-135.5 -260h-323q-59 0 -80 27.5t-29 87.5q-20 164 -31.5 335t-11.5 347z" />
<glyph unicode="W" horiz-adv-x="1603" d="M262 365q0 117 4 250t11.5 271t18.5 274t26 259h274q35 0 51.5 -17.5t16.5 -43.5q0 -16 -4.5 -48t-8.5 -61q-16 -115 -28.5 -212t-23.5 -200.5t-21.5 -223t-22.5 -279.5l336 966h217q55 0 69.5 -26.5t16.5 -65.5q1 -23 1 -52v-31q-1 -48 -3 -78l-29 -705q51 158 92 296 t77 267t68 254t64 260h252q63 0 64 -57q0 -20 -18.5 -95t-50.5 -185.5t-76 -247t-95 -279.5t-108.5 -286.5t-114.5 -268.5h-299q-88 0 -88 70q0 12 2 49t6 126t13.5 245.5t21.5 408.5l-311 -899h-306q-35 0 -57.5 16.5t-26.5 49.5q-4 57 -7 132.5t-3 166.5z" />
<glyph unicode="X" horiz-adv-x="1124" d="M49 45q0 14 5 33.5t14 36.5q25 59 70.5 139t104 166t124 169t127.5 150q-72 154 -119 326t-64 354h293q37 0 48.5 -17.5t15.5 -51.5q12 -74 20 -132.5t17.5 -107.5t19.5 -93t23 -89q68 92 140.5 218t137.5 273h266q49 0 49 -37q0 -16 -9 -42.5t-23 -55.5 q-29 -57 -71 -124.5t-92 -140.5t-108.5 -148.5t-117.5 -149.5q78 -154 127 -341t65 -380h-285q-51 0 -63 26.5t-19 65.5q-4 27 -10 72t-16 102.5t-24.5 120t-32.5 123.5q-43 -55 -87.5 -124t-84 -138.5t-72.5 -135t-53 -112.5h-261q-31 0 -43 10t-12 35z" />
<glyph unicode="Y" horiz-adv-x="1073" d="M293 1419h299q47 0 55 -24.5t8 -67.5q0 -96 5.5 -211t29.5 -280q102 178 169 320t110 263h248q72 0 71 -57q1 -31 -22 -80q-35 -80 -78 -168t-99.5 -184t-129 -201.5t-166.5 -222.5l-99 -506h-256q-41 0 -56 15.5t-15 43.5q0 20 12 80t24 125l52 268q-76 233 -115 446.5 t-47 440.5z" />
<glyph unicode="Z" horiz-adv-x="1011" d="M70 51q0 12 3 38t7 50l26 131q82 119 164 228.5t166 215t171 208t179 206.5h-419q-66 0 -66 52q0 10 4 36.5t8 51.5l31 151h793q63 0 63 -53q0 -10 -4 -35.5t-8 -50.5l-27 -141q-186 -211 -364.5 -427t-321.5 -421h453q63 0 63 -53q0 -10 -4 -36t-8 -50l-29 -152h-817 q-63 0 -63 51z" />
<glyph unicode="[" horiz-adv-x="741" d="M141 -117q0 10 3 36t8 50l319 1604h428q63 0 64 -53q0 -12 -3.5 -37t-7.5 -49l-22 -115h-201l-248 -1235h123q63 0 64 -53q0 -10 -4.5 -36t-8.5 -50l-22 -115h-428q-63 0 -64 53z" />
<glyph unicode="\" horiz-adv-x="964" d="M238 1573h256q33 0 53 -15.5t31 -56.5l452 -1671h-258q-31 0 -52.5 14.5t-31.5 55.5z" />
<glyph unicode="]" horiz-adv-x="741" d="M29 -117q0 10 3 36t7 50l22 115h201l248 1235h-123q-63 0 -63 53q0 10 3 36t7 50l24 115h428q63 0 64 -53q0 -12 -4 -37t-8 -49l-318 -1604h-428q-63 0 -63 53z" />
<glyph unicode="^" horiz-adv-x="1062" d="M209 731q0 23 18 41l453 647h186q45 0 60.5 -12t25.5 -53l187 -664h-246q-35 0 -48.5 14.5t-23.5 53.5l-76 303l-243 -371h-248q-45 0 -45 41z" />
<glyph unicode="_" horiz-adv-x="1064" d="M-49 -350l55 276h1059l-55 -276h-1059z" />
<glyph unicode="`" horiz-adv-x="884" d="M113 1513h268q43 0 61.5 -11t36.5 -50q55 -139 103 -283h-166q-33 0 -55.5 8.5t-38.5 36.5z" />
<glyph unicode="a" horiz-adv-x="1087" d="M166 373q0 141 38 270t113.5 227.5t186 157.5t256.5 59q92 0 165.5 -17t114.5 -36q61 -29 86 -51t25 -76q0 -10 -5 -41.5t-11 -56.5l-86 -377q-12 -51 -20.5 -111.5t-14.5 -120t-9.5 -111.5t-3.5 -89h-172q-39 0 -53 15.5t-22 45.5l-19 64q-61 -70 -124.5 -109 t-164.5 -39q-143 0 -211.5 106.5t-68.5 289.5zM496 389q0 -63 18 -98t57 -35q51 0 77 18.5t48 42.5l115 529q-10 4 -22.5 6t-28.5 2q-74 0 -124 -48t-81 -119t-45 -151.5t-14 -146.5z" />
<glyph unicode="b" horiz-adv-x="1085" d="M133 129q0 23 5 50.5t12 56.5l249 1234h242q41 0 60.5 -11t19.5 -50q0 -16 -4 -37.5t-8 -40.5l-64 -313q31 29 80 49t100 20q78 0 135.5 -27.5t94.5 -76.5t54 -118.5t17 -153.5q0 -141 -41 -274.5t-120.5 -237t-196.5 -165t-266 -61.5q-78 0 -148.5 13.5t-107.5 27.5 q-66 25 -89.5 52.5t-23.5 62.5zM487 240q10 -2 22.5 -3t22.5 -1q72 0 121 41.5t80 108.5t45.5 146.5t14.5 155.5q0 55 -19.5 93t-66.5 38q-33 0 -57.5 -10t-53.5 -31z" />
<glyph unicode="c" horiz-adv-x="913" d="M170 391q0 123 35 247t104.5 224.5t175 162.5t248.5 62q55 0 105.5 -9t89.5 -24.5t62.5 -37t23.5 -45.5q0 -27 -10.5 -55.5t-20.5 -55.5l-31 -76q-23 10 -70.5 22.5t-99.5 12.5q-76 0 -130 -37t-88 -94t-49 -128t-15 -138q0 -78 33.5 -125t101.5 -47q27 0 53.5 1t54.5 9 q18 4 37 9t31 5q29 0 40 -19t21 -56l35 -131q-76 -47 -171 -70t-183 -23q-186 0 -284.5 110t-98.5 306z" />
<glyph unicode="d" horiz-adv-x="1093" d="M168 373q0 143 41 273t114.5 228.5t175 155.5t222.5 57q39 0 70.5 -4t66.5 -20l84 407h227q41 0 61.5 -11t20.5 -50q0 -16 -4 -37.5t-8 -40.5l-180 -899q-10 -53 -18.5 -113.5t-13.5 -119t-9 -110.5t-4 -89h-170q-39 0 -53.5 14.5t-24.5 46.5l-18 64q-61 -74 -130 -111 t-153 -37q-152 0 -224.5 106.5t-72.5 289.5zM508 385q0 -59 21.5 -94t62.5 -35q35 0 64.5 18.5t52.5 47.5l104 509q-10 4 -26.5 6.5t-38.5 2.5q-63 0 -108.5 -45t-75 -114t-43 -148.5t-13.5 -147.5z" />
<glyph unicode="e" horiz-adv-x="1011" d="M170 406q0 111 31.5 231.5t101.5 220.5t177.5 164.5t260.5 64.5q168 0 259.5 -81.5t91.5 -229.5q0 -68 -29 -136.5t-93.5 -124.5t-170 -91t-260.5 -35h-45q0 -88 44 -120.5t109 -32.5q41 0 83 5t71 13q18 4 34.5 9t28.5 5q29 0 40 -19.5t22 -55.5l32 -127 q-74 -39 -174 -66t-215 -27q-90 0 -163.5 30t-126 86t-81 136t-28.5 181zM504 588h41q121 0 186.5 46t65.5 118q0 47 -27 72.5t-68 25.5q-68 0 -125 -69.5t-73 -192.5z" />
<glyph unicode="f" horiz-adv-x="778" d="M-119 -254q0 35 15 90l18 66q12 -2 24.5 -2h24.5q47 0 86 14t70 50t52.5 95.5t37.5 149.5l106 594h-45q-63 0 -63 53q0 10 4 36t8 50l25 121h123l14 70q16 78 51 144t87 114.5t121 75t153 26.5q49 0 85.5 -5t61.5 -11q72 -18 91.5 -44t19.5 -63q0 -20 -7.5 -52t-13.5 -56 l-16 -64q-29 10 -66 20.5t-94 10.5q-55 0 -93 -31t-48 -86l-11 -49h160q63 0 64 -53q0 -10 -4 -36t-9 -50l-24 -121h-236l-129 -686q-25 -135 -75 -226.5t-112.5 -146.5t-134 -79.5t-141.5 -24.5q-20 0 -50.5 3t-59.5 14t-49.5 32.5t-20.5 56.5z" />
<glyph unicode="g" horiz-adv-x="1075" d="M94 -231q0 23 11.5 56.5t21.5 65.5l16 54q47 -20 109.5 -37t142.5 -17q111 0 166 47.5t72 124.5l16 87q-23 -29 -71 -58t-123 -29q-131 0 -208 91.5t-77 242.5q0 139 39 263t116.5 216.5t193.5 146.5t269 54q57 0 112.5 -4t101 -9t78 -11t46.5 -9q45 -10 62.5 -28.5 t17.5 -46.5q0 -14 -6 -44t-10 -53l-14 -71l-89 8q-8 -92 -16 -172t-29 -180l-79 -400q-25 -123 -77 -202.5t-124 -128t-161 -67.5t-183 -19q-113 0 -182.5 19t-83.5 28q-27 16 -42.5 34.5t-15.5 47.5zM500 453q0 -57 23.5 -91t68.5 -34q29 0 56.5 10t43.5 27l92 452 q-6 2 -21 4t-34 2q-55 0 -98 -30.5t-72 -83t-44 -119t-15 -137.5z" />
<glyph unicode="h" horiz-adv-x="1107" d="M121 55q0 8 3 26.5t6 38t6 37t5 27.5l254 1286h244q41 0 60.5 -11t19.5 -50q0 -16 -4 -37.5t-8 -40.5l-66 -332q47 39 109.5 63.5t136.5 24.5q113 0 185.5 -67.5t72.5 -196.5q0 -66 -8.5 -122t-18.5 -111l-119 -590h-241q-51 0 -64.5 17.5t-13.5 39.5q0 8 2 23.5t5 34 t6 38t7 33.5l86 439q4 23 11.5 58.5t7.5 61.5q0 33 -19.5 50.5t-48.5 17.5q-47 0 -85 -22.5t-60 -42.5l-148 -748h-251q-47 0 -59.5 17.5t-12.5 37.5z" />
<glyph unicode="i" horiz-adv-x="548" d="M119 55q0 18 7 59.5t13 69.5l178 879h248q49 0 61.5 -17.5t12.5 -37.5q0 -10 -2 -27.5t-5 -37t-7 -38t-7 -28.5l-178 -877h-250q-47 0 -59 17.5t-12 37.5zM324 1284q0 102 59.5 148.5t159.5 46.5q170 0 170 -117q0 -98 -57.5 -146.5t-159.5 -48.5q-86 0 -129 31t-43 86z " />
<glyph unicode="j" horiz-adv-x="548" d="M-160 -254q0 35 15 90l18 66q12 -2 25 -2h24q43 0 78 14t62 49q28 35 49 95q20 60 39 151l167 854h248q49 0 62 -17q12 -17 12 -38q0 -10 -2 -28q-2 -17 -5 -37q-3 -19 -7 -38q-4 -18 -7 -28l-151 -744q-18 -90 -52 -178t-89 -158t-133 -112q-78 -43 -185 -45 q-18 0 -47 4t-55 16q-27 12 -46 33q-19 20 -20 53zM197 627q0 50 29 72.5t78 22.5q83 0 83 -57q0 -48 -28 -71.5t-78 -23.5q-42 0 -63 15t-21 42z" />
<glyph unicode="k" horiz-adv-x="1105" d="M119 59q0 16 4 39t8 41l270 1331h242q41 0 60.5 -11t19.5 -50q0 -16 -4 -37.5t-8 -40.5l-133 -661q100 98 169.5 200.5t114.5 192.5h303q31 0 41.5 -15.5t10.5 -31.5q0 -20 -13.5 -45t-32.5 -51q-10 -16 -40.5 -52.5t-75.5 -85.5t-103.5 -105t-124.5 -112 q51 -70 93.5 -145.5t74 -150t55 -144.5t37.5 -125h-307q-37 0 -57.5 14.5t-30.5 40.5q-16 47 -31.5 102.5t-33 114t-38 115.5t-46.5 109l-101 -496h-243q-41 0 -60.5 11.5t-19.5 47.5z" />
<glyph unicode="l" horiz-adv-x="630" d="M150 207q0 41 6 91t16 95l219 1077h248q74 0 74 -53q0 -16 -3 -33.5t-8 -42.5l-198 -979q-4 -18 -6 -35.5t-2 -31.5q0 -29 16 -39t37 -10h33q33 0 46 -16.5t17 -59.5l12 -147q-6 -4 -28.5 -10.5t-56 -14.5t-76.5 -13t-90 -5q-49 0 -96.5 11t-82 37.5t-56 70.5t-21.5 108z " />
<glyph unicode="m" horiz-adv-x="1644" d="M121 55q0 8 3 26.5t6 38t6 37t5 27.5l174 879h189q39 0 53 -9.5t18 -35.5l9 -74q47 55 122.5 99t174.5 44q84 0 144 -37.5t89 -109.5q59 66 138 106.5t175 40.5q113 0 183.5 -67.5t70.5 -196.5q0 -66 -8 -122t-18 -111l-119 -590h-242q-51 0 -64 17.5t-13 39.5 q0 8 2 23.5t5 34t6 38t7 33.5l86 439q4 23 11 58.5t7 61.5q0 33 -19 50.5t-48 17.5q-45 0 -82 -24.5t-62 -51.5q-4 -39 -10 -75.5t-12 -71.5l-119 -590h-241q-51 0 -64.5 17.5t-13.5 39.5q0 8 2 23.5t5 34t6 38t7 33.5l86 439q4 23 11.5 58.5t7.5 61.5q0 33 -19.5 50.5 t-48.5 17.5q-49 0 -81 -23.5t-54 -44.5l-150 -745h-249q-47 0 -59.5 17.5t-12.5 37.5z" />
<glyph unicode="n" horiz-adv-x="1107" d="M121 55q0 8 3 26.5t6 38t6 37t5 27.5l174 879h189q39 0 53 -9.5t18 -35.5l9 -74q47 57 125.5 100t177.5 43q113 0 185.5 -67.5t72.5 -196.5q0 -66 -8.5 -122t-18.5 -111l-119 -590h-241q-51 0 -64.5 17.5t-13.5 39.5q0 8 2 23.5t5 34t6 38t7 33.5l86 439q4 23 11.5 58.5 t7.5 61.5q0 33 -19.5 50.5t-48.5 17.5q-49 0 -86 -23.5t-59 -44.5l-150 -745h-249q-47 0 -59.5 17.5t-12.5 37.5z" />
<glyph unicode="o" horiz-adv-x="1107" d="M168 387q0 135 37 261t108.5 223.5t177 156.5t242.5 59q90 0 166 -26.5t130 -78.5t85 -130t31 -178q0 -135 -37 -261t-108.5 -223.5t-177 -157t-242.5 -59.5q-90 0 -166 27t-130.5 79t-85 129t-30.5 179zM498 379q0 -55 20.5 -102.5t81.5 -47.5q51 0 91 40t67.5 104.5 t42 145.5t14.5 163q0 55 -20.5 102t-81.5 47q-51 0 -91 -39.5t-68 -104t-42 -145.5t-14 -163z" />
<glyph unicode="p" horiz-adv-x="1107" d="M66 -293q0 16 4 36.5t8 43.5l153 756q14 66 27.5 127t42.5 133h-35q-25 0 -42 8t-17 33q0 16 7 51t15 74l15 67q47 12 145 26.5t240 14.5q113 0 207 -23.5t161.5 -76.5t104.5 -139t37 -211q0 -135 -35 -250t-96.5 -199t-145.5 -131t-182 -47q-59 0 -118.5 22.5 t-90.5 61.5l-88 -432h-236q-29 0 -55 7t-26 48zM516 293q35 -23 94 -23q53 0 90 38t59.5 94.5t33 123t10.5 123.5q0 84 -36 129t-105 45h-18.5t-22.5 -2z" />
<glyph unicode="q" horiz-adv-x="1124" d="M160 330q0 141 38 275t116.5 239.5t199.5 169t289 63.5q135 0 232.5 -14t125.5 -21q45 -10 62.5 -27.5t17.5 -45.5q0 -14 -6 -44t-10 -53l-15 -71l-88 8q-8 -92 -16 -172t-29 -180l-162 -805h-241q-14 0 -28.5 1t-26 6t-18.5 16.5t-7 31.5q0 16 4 36.5t8 43.5l64 309 q-35 -41 -91.5 -68.5t-127.5 -27.5q-59 0 -112.5 20.5t-93.5 61.5t-62.5 102.5t-22.5 145.5zM504 383q0 -47 20.5 -78t67.5 -31q33 0 66.5 14.5t56.5 33.5l100 493q-23 8 -53 8q-59 0 -107.5 -36.5t-82 -98t-51 -141.5t-17.5 -164z" />
<glyph unicode="r" horiz-adv-x="792" d="M121 55q0 8 3 26.5t6 38t6 37t5 27.5l176 879h197q33 0 46 -6t20 -17q4 -8 6 -18t2 -21l2 -90q18 31 46 58.5t62.5 50t73.5 36t80 13.5q94 0 94 -65q0 -25 -5 -52.5t-15 -62.5l-35 -135q-25 4 -46.5 6t-43.5 2q-23 0 -52.5 -4t-59.5 -12.5t-58.5 -21.5t-48.5 -32 l-140 -692h-249q-47 0 -59.5 17.5t-12.5 37.5z" />
<glyph unicode="s" horiz-adv-x="944" d="M106 125q0 25 9.5 54.5t19.5 58.5l29 73q14 -8 46 -21.5t74 -25.5t90 -21.5t95 -9.5q139 0 139 84q0 29 -17.5 51.5t-76.5 45.5q-59 25 -112.5 50t-94.5 62t-64.5 86.5t-23.5 118.5q0 88 34 154.5t94.5 111.5t141 69t173.5 24q49 0 92 -6.5t77.5 -15.5t58 -17.5 t36.5 -14.5q53 -25 72.5 -44t19.5 -42q0 -14 -7 -35.5t-18 -52.5l-30 -86q-55 25 -136.5 44.5t-156.5 19.5q-41 0 -79 -18.5t-38 -63.5q0 -41 34 -58.5t87 -40.5q57 -25 106 -51t85 -63t56.5 -85t20.5 -114q0 -92 -35 -162.5t-96 -117t-142 -70t-173 -23.5q-57 0 -135 12.5 t-148 41.5q-53 23 -80 42t-27 56z" />
<glyph unicode="t" horiz-adv-x="798" d="M193 856q0 10 4 36t8 50l26 121h129l70 258h225q76 0 76 -53q0 -16 -2 -33.5t-8 -44.5l-27 -127h154q63 0 63 -53q0 -10 -4 -36t-8 -50l-25 -121h-231l-86 -424q-4 -16 -6 -35.5t-2 -36.5q0 -29 19.5 -47t54.5 -18q23 0 32 1t29 5q10 2 19.5 3t17.5 1q29 0 39 -21.5 t16 -54.5l23 -141q-35 -16 -117 -37t-193 -21q-59 0 -111 15.5t-90 46.5t-59.5 77t-21.5 107q0 33 4 74t10 70l86 436h-51q-63 0 -63 53z" />
<glyph unicode="u" horiz-adv-x="1122" d="M168 240q0 66 8 122t19 111l118 590h242q51 0 64.5 -17.5t13.5 -39.5q0 -8 -2 -23.5t-5 -34t-7.5 -38t-6.5 -33.5l-86 -439q-4 -23 -11 -58.5t-7 -62.5q0 -33 19.5 -50t47.5 -17q49 0 86 23.5t60 43.5l149 746h250q47 0 59.5 -17.5t12.5 -37.5q0 -10 -3 -27.5t-6 -37 t-6 -38t-6 -26.5l-88 -447q-10 -51 -18 -111.5t-14.5 -120t-10.5 -111.5t-4 -89h-174q-41 0 -57.5 13.5t-24.5 47.5l-18 68q-66 -78 -152 -116t-184 -38q-113 0 -185.5 68t-72.5 197z" />
<glyph unicode="v" horiz-adv-x="1030" d="M233 844v33.5t1.5 42t2.5 59.5t5 84h241q29 0 45.5 -2t24.5 -11.5t10 -29t2 -51.5q0 -16 -3 -59.5t-8 -98.5t-8 -116.5t-3 -112.5q0 -111 1.5 -189t6.5 -149q35 80 74 178t76.5 205.5t71.5 219t63 216.5h254q51 0 51 -41q0 -31 -15.5 -85t-29.5 -97q-33 -90 -79 -202 t-99.5 -225.5t-113 -221t-118.5 -191.5h-248q-63 0 -88.5 19.5t-44.5 78.5q-16 53 -29.5 136t-22.5 182.5t-14.5 209t-5.5 218.5z" />
<glyph unicode="w" horiz-adv-x="1503" d="M236 848q0 66 1 128t5 87h235q51 0 62.5 -18.5t11.5 -71.5q0 -14 -1 -44t-3 -67t-3 -80t-1 -84q0 -129 1 -221t3 -145l237 633h209q35 0 47.5 -18.5t14.5 -51.5l20 -559q29 76 58.5 166t58.5 186t55.5 192.5t48.5 182.5h246q61 0 62 -47q0 -27 -11.5 -73t-23.5 -87 q-33 -104 -79 -221t-99.5 -231.5t-110.5 -219t-111 -184.5h-194q-63 0 -87 31.5t-28 89.5l10 530l-235 -651h-189q-59 0 -86.5 19.5t-46.5 78.5q-12 39 -25.5 124t-25.5 190.5t-19 220.5t-7 215z" />
<glyph unicode="x" horiz-adv-x="987" d="M35 33q0 16 6 37.5t16.5 45t22.5 46t24 41.5q59 92 135 180t181 180q-63 94 -121.5 221t-97.5 279h278q43 0 52.5 -20.5t23.5 -69.5q16 -55 33.5 -126t46.5 -130q29 33 59.5 76t60 89t56.5 93t45 88h207q47 0 59.5 -12.5t12.5 -36.5q0 -23 -16.5 -63t-45.5 -87 q-45 -72 -116.5 -153.5t-184.5 -180.5q43 -66 80 -141.5t64.5 -148t46 -136t24.5 -104.5h-254q-45 0 -58 16.5t-28 73.5l-15 62.5t-19.5 79.5t-24 81t-25.5 66q-35 -39 -66.5 -85t-61 -96.5t-57.5 -101.5t-54 -96h-220q-37 0 -53 5t-16 28z" />
<glyph unicode="y" horiz-adv-x="1048" d="M-6 -240q0 37 12 80l19 70q10 -2 27.5 -3t33.5 -1q92 0 162.5 48t136.5 142q-25 53 -51.5 132t-49 175.5t-37 208t-14.5 232.5v33.5t1.5 42t2.5 59.5t5 84h258q45 0 56 -16.5t11 -75.5v-129q0 -145 8.5 -262t18.5 -209q78 156 143.5 334t120.5 358h232q45 0 57 -14.5 t12 -36.5q0 -31 -15.5 -79t-29.5 -93q-27 -90 -77 -201t-109.5 -223.5t-124 -217t-121.5 -180.5q-129 -176 -258 -275t-279 -99q-59 0 -105 27.5t-46 88.5z" />
<glyph unicode="z" horiz-adv-x="937" d="M73 83.5q3 22.5 7 45.5l22 113q63 70 125 138.5t126.5 137t135 140t150.5 145.5h-348q-57 0 -58 49q0 10 3.5 27.5t9.5 50.5l26 133h717q33 0 48.5 -15.5t15.5 -37.5q0 -10 -4.5 -37t-8.5 -49l-22 -113q-164 -150 -304.5 -295t-244.5 -256h371q59 0 59 -51 q0 -12 -4 -34.5t-8 -47.5l-27 -127h-725q-65 0 -65 49q0 12 3 34.5z" />
<glyph unicode="{" horiz-adv-x="735" d="M162 49q0 43 8 81t14 71l54 241q6 27 6 47q0 33 -15.5 46.5t-42.5 25.5q-10 4 -17 8t-7 19q0 4 2 15t6 32l41 203q45 4 80 28.5t49 94.5l53 264q16 82 44 148.5t71 112.5t104.5 70.5t147.5 24.5q35 0 73.5 -9t57.5 -20q43 -23 43 -61q0 -23 -7 -54.5t-12 -45.5l-18 -86 q-12 4 -32.5 7t-37.5 3q-49 0 -84.5 -25.5t-46.5 -79.5l-47 -237q-20 -100 -65 -162.5t-121 -99.5q47 -29 69.5 -70t22.5 -100q0 -20 -3 -44t-7 -48l-43 -211q-4 -18 -9.5 -49t-5.5 -42q0 -25 13.5 -48t60.5 -23q12 0 28.5 2t31.5 2q20 0 26 -11.5t6 -27.5v-16.5t-2 -18.5 l-28 -153q-96 -31 -197 -31q-49 0 -97 14t-85 43t-59.5 71t-22.5 99z" />
<glyph unicode="|" horiz-adv-x="694" d="M166 -121q0 10 4 30.5t8 37.5l316 1626h239q61 0 62 -49q0 -12 -4.5 -33t-8.5 -37l-315 -1624h-238q-63 0 -63 49z" />
<glyph unicode="}" horiz-adv-x="735" d="M39 -84q0 23 7 54.5t11 45.5l19 72q12 -4 32.5 -7t36.5 -3q25 0 47.5 1t41 10t33 27.5t20.5 53.5l51 260q20 98 64 161.5t120 100.5q-47 29 -69.5 69t-22.5 101q0 18 4 43t8 49q16 88 27.5 138.5t18 78t8.5 40t2 22.5q0 41 -15.5 65.5t-58.5 24.5q-12 0 -28.5 -2 t-30.5 -2q-20 0 -26.5 11t-6.5 28v16t2 19l28 157q47 16 98.5 23.5t94.5 7.5q131 0 195.5 -54t64.5 -177q0 -39 -7 -88.5t-13 -79.5q0 -2 -1 -6.5t-5.5 -26t-13.5 -65.5t-25 -123q-6 -29 -7 -48q0 -33 14.5 -46t41.5 -25q10 -4 17 -9.5t7 -17.5q0 -4 -2 -15.5t-6 -31.5 l-41 -205q-45 -2 -78.5 -26.5t-48.5 -94.5l-51 -247q-16 -78 -42 -144.5t-68 -118t-102 -81t-146 -29.5q-59 0 -99.5 11t-56.5 22q-43 20 -43 61z" />
<glyph unicode="~" d="M172 553q0 57 24.5 115.5t68.5 104.5t106.5 75t140.5 29q59 0 109.5 -18.5t105.5 -53.5q39 -25 70.5 -47.5t60.5 -22.5q33 0 50.5 35t27.5 100h162q43 0 54 -13t11 -42q0 -59 -24.5 -116.5t-70.5 -104.5t-109.5 -76t-141.5 -29q-47 0 -101 14.5t-104 49.5 q-27 18 -61.5 48t-69.5 30q-31 0 -50 -36t-32 -97h-161q-43 0 -54.5 13t-11.5 42z" />
<glyph unicode="&#xa1;" horiz-adv-x="626" d="M66 -289q0 12 5 38t11 56.5t13 60.5t11 52q12 55 35 140t49.5 178.5t53 184.5t49.5 159h172q33 0 46 -15.5t13 -52.5q0 -23 -6 -90.5t-15 -153.5t-21.5 -177t-26.5 -163l-56 -274h-272q-37 0 -49 16.5t-12 40.5zM279 868q0 111 58.5 166.5t162.5 55.5q86 0 131 -41 t45 -105q0 -111 -60.5 -165t-160.5 -54q-86 0 -131 40t-45 103z" />
<glyph unicode="&#xa2;" d="M268 575q0 123 35 247t104.5 224.5t175 163t248.5 62.5h13.5t15.5 -2l41 153h94q25 0 34 -9t9 -25q0 -8 -4 -29l-33 -115q70 -20 118 -48t48 -56q0 -23 -8 -47.5t-18 -49.5l-29 -71q-16 8 -66.5 22.5t-105.5 24.5l-166 -604q25 4 50.5 9t45.5 11q18 4 37 9.5t31 5.5 q29 0 40 -19.5t21 -56.5l31 -113q-66 -41 -155 -66.5t-170 -33.5l-52 -191h-92q-25 0 -34 9.5t-9 25.5q0 6 2 14.5t4 16.5l35 131q-141 27 -216 131t-75 276zM543 606q0 -66 20.5 -108.5t67.5 -65.5l160 584q-68 -16 -116 -58.5t-77 -99.5t-42 -123t-13 -129z" />
<glyph unicode="&#xa3;" d="M150 59q0 20 13 84t23 129q66 66 114 136.5t71 177.5h-72q-66 0 -66 53q0 10 6.5 48t14.5 75l12 59h127v37q0 39 5 80t12 70q39 205 161.5 309t348.5 104q84 0 145 -17.5t96 -33.5q20 -10 29.5 -27.5t9.5 -33.5q-2 -31 -6 -53.5t-8 -45.5l-19 -86q-39 12 -68.5 19.5 t-55 11.5t-49 6t-50.5 2q-61 0 -103 -15t-71 -43t-45 -66t-25 -83q-6 -29 -8 -64.5t-6 -70.5h246q63 0 63 -55q0 -4 -2 -18.5t-5 -33t-7 -37t-6 -30.5l-12 -61h-301q-25 -98 -66 -175t-107 -139h472q63 0 63 -53q0 -10 -4 -35.5t-8 -50.5l-25 -133h-768q-39 0 -54 15.5 t-15 43.5z" />
<glyph unicode="&#xa4;" d="M143 354q0 33 37 62l109 92q-12 45 -13 98q0 182 72 297l-106 139l155 132q27 25 52 24q25 0 45 -27l75 -100q35 10 74 15.5t80 5.5q117 0 199 -41l186 157l104 -133q14 -16 15 -37q0 -35 -37 -61l-123 -105q12 -43 12 -92q0 -86 -17.5 -155.5t-47.5 -126.5l104 -133 l-155 -132q-29 -25 -52 -24q-25 0 -45 27l-61 77q-82 -29 -170 -28q-121 0 -205 45l-170 -144l-102 131q-14 16 -15 37zM518 653q0 -55 36 -91t108 -36q76 0 126 51.5t50 149.5q0 57 -36 90t-108 33q-74 0 -125 -49t-51 -148z" />
<glyph unicode="&#xa5;" d="M168 227q0 10 3 36t7 50l12 60h289l23 116h-203q-66 0 -66 54q0 10 3.5 38.5t7.5 53.5l12 59h203q-51 176 -79 341t-34 351h229q47 0 55.5 -24.5t8.5 -67.5q2 -98 14.5 -229t38.5 -301q104 180 196.5 340t137.5 282h178q72 0 72 -57q0 -31 -23 -80q-55 -129 -129.5 -261 t-193.5 -294h112q63 0 64 -55q0 -10 -3 -38t-7 -52l-13 -60h-305l-22 -116h221q63 0 63 -56q0 -10 -3 -34.5t-7 -49.5l-12 -59h-301l-33 -174h-190q-41 0 -56.5 15.5t-15.5 43.5q0 12 5 43t13 72h-207q-66 0 -65 53z" />
<glyph unicode="&#xa6;" horiz-adv-x="544" d="M92 -115q0 20 11.5 80t23.5 125l82 418h229q39 0 54.5 -15.5t15.5 -43.5q0 -20 -12.5 -80t-24.5 -125l-82 -418h-227q-39 0 -54.5 15.5t-15.5 43.5zM303 950q0 20 11.5 80t23.5 125l82 418h229q39 0 54.5 -15.5t15.5 -44.5q0 -20 -12.5 -79.5t-24.5 -124.5l-82 -418h-227 q-39 0 -54.5 15.5t-15.5 43.5z" />
<glyph unicode="&#xa7;" horiz-adv-x="1107" d="M117 -66q0 14 8 36t18 50l35 99q55 -25 144.5 -55.5t197.5 -30.5q51 0 90 18.5t39 63.5q0 41 -33.5 58t-89.5 38q-74 25 -135 51.5t-105 63t-70 90t-26 133.5q0 109 69 192.5t183 137.5q-31 29 -59.5 74.5t-28.5 123.5q0 92 36 162t96.5 116t142.5 69.5t174 23.5 q117 0 182.5 -22.5t87.5 -32.5q53 -27 72.5 -45.5t19.5 -40.5q0 -14 -7 -33t-17 -47l-35 -99q-55 25 -129 46.5t-166 21.5q-51 0 -90 -18.5t-39 -63.5q0 -41 34 -58.5t89 -37.5q74 -27 135 -53.5t105.5 -63.5t70 -89t25.5 -132q0 -111 -68.5 -194t-185.5 -136 q31 -29 60.5 -74t29.5 -122q0 -92 -36 -162t-96.5 -116t-142 -69.5t-174.5 -23.5q-61 0 -114.5 9t-94 21.5t-68.5 24t-38 17.5q-53 27 -74.5 42t-21.5 37zM479 582q0 -35 15.5 -57.5t40 -39t57.5 -26.5t67 -19q92 27 142.5 80t50.5 127q0 33 -15.5 56.5t-41 40t-58 26.5 t-67.5 18q-92 -27 -141.5 -79.5t-49.5 -126.5z" />
<glyph unicode="&#xa8;" horiz-adv-x="892" d="M45 1286q0 102 54.5 147.5t148.5 45.5q154 0 153 -119q0 -98 -52 -145.5t-148 -47.5q-78 0 -117 32t-39 87zM487 1286q0 102 54.5 147.5t148.5 45.5q154 0 154 -119q0 -98 -52.5 -145.5t-148.5 -47.5q-78 0 -117 32t-39 87z" />
<glyph unicode="&#xa9;" horiz-adv-x="1650" d="M240 561q0 193 56 353.5t159.5 277.5t248 182.5t320.5 65.5q137 0 254 -40t201 -116t132 -186.5t48 -253.5q0 -197 -59.5 -356.5t-166 -274.5t-255 -177.5t-326.5 -62.5q-131 0 -243.5 39t-194.5 114t-128 184.5t-46 250.5zM457 596q0 -109 31.5 -187.5t88 -130 t135.5 -75t171 -23.5q123 0 225 47t177 131t117 201t42 256q0 113 -33 194t-92 131t-140 73.5t-175 23.5q-119 0 -219.5 -49t-173 -135t-113.5 -203t-41 -254zM639 633q0 98 28.5 185t81 151.5t124 102.5t157.5 38q23 0 54.5 -6t60.5 -17.5t48 -29t19 -41.5q0 -16 -6 -33.5 t-10 -32.5l-20 -53q-23 8 -48.5 13t-48.5 5q-104 0 -152 -73.5t-48 -196.5q0 -51 22.5 -90t75.5 -39q31 0 70 14q4 2 10 4.5t16 2.5q14 0 18.5 -14.5t8.5 -24.5l22 -115q-39 -25 -97 -44.5t-130 -19.5q-121 0 -188.5 81t-67.5 233z" />
<glyph unicode="&#xaa;" horiz-adv-x="806" d="M231 530q0 10 4.5 36t8.5 50l10 54h534q63 0 64 -54q0 -10 -4 -35.5t-8 -52.5l-11 -51h-532q-66 0 -66 53zM268 1006q0 86 27 165.5t79 141t129 98.5t175 37q63 0 112.5 -11.5t77.5 -21.5q43 -16 64.5 -30.5t21.5 -49.5q0 -6 -3 -24.5t-7 -34.5l-59 -234 q-8 -33 -14.5 -69.5t-10.5 -73.5t-6 -69.5t-2 -55.5h-127q-31 0 -39 9.5t-12 27.5l-12 41q-41 -43 -84 -67.5t-115 -24.5q-96 0 -145.5 65.5t-49.5 180.5zM489 1020q0 -39 18.5 -61.5t59.5 -22.5q27 0 51.5 10t36.5 27l68 321q-6 2 -21.5 3t-25.5 1q-49 0 -84 -27.5 t-57.5 -68.5t-34 -89t-11.5 -93z" />
<glyph unicode="&#xab;" horiz-adv-x="1019" d="M143 530l267 398h192q47 0 47 -39q0 -10 -3 -24.5t-9 -24.5l-201 -310l82 -397h-196q-31 0 -52.5 14.5t-31.5 55.5zM602 530l267 398h192q47 0 47 -39q0 -10 -3 -24.5t-9 -24.5l-201 -310l82 -397h-196q-31 0 -52.5 14.5t-31.5 55.5z" />
<glyph unicode="&#xac;" horiz-adv-x="962" d="M197 700q0 10 4 36t8 50l29 142h729q63 0 63 -56q0 -10 -4 -34.5t-8 -49.5l-86 -466h-246q-23 0 -34 6t-11 26q0 8 2 22.5t4 20.5l45 250h-432q-63 0 -63 53z" />
<glyph unicode="&#xad;" horiz-adv-x="768" d="M152 461q0 10 4 35.5t8 50.5l33 166h548q63 0 64 -54q0 -10 -4 -35.5t-8 -52.5l-33 -163h-547q-66 0 -65 53z" />
<glyph unicode="&#xae;" horiz-adv-x="983" d="M256 979q0 111 33 205t95 162.5t150.5 107.5t198.5 39q82 0 152.5 -22.5t122 -66.5t80 -109.5t28.5 -153.5q0 -113 -33.5 -206t-97 -160.5t-152.5 -104.5t-200 -37q-172 0 -274.5 88t-102.5 258zM377 985q0 -66 20.5 -112t56 -75.5t84 -43t105.5 -13.5q80 0 144.5 29 t110.5 81t71.5 125t25.5 161q0 68 -21.5 114.5t-58 77.5t-87 44t-107.5 13q-78 0 -140.5 -29.5t-108.5 -82.5t-70.5 -127t-24.5 -162zM494 881q0 4 2 14t9 49t22.5 118t43.5 218q27 4 70 9t88 5q70 0 111 -30.5t41 -92.5q0 -47 -25 -80.5t-63 -56.5q6 -14 14 -36.5t16 -47 t13.5 -50.5t5.5 -44h-111q-23 0 -24 21q-6 35 -10.5 65.5t-10.5 58.5h-45l-31 -145h-96q-12 0 -16 7t-4 18zM662 1090h30q18 0 38 19t20 56q0 41 -41 45q-14 0 -25 -2z" />
<glyph unicode="&#xaf;" horiz-adv-x="892" d="M160 1257q0 10 6 36t10 50l19 93h479q63 0 63 -54v-14l-4 -33l-24 -131h-486q-63 0 -63 53z" />
<glyph unicode="&#xb0;" horiz-adv-x="790" d="M291 1114q0 74 23.5 135.5t66.5 106.5t103.5 69.5t133.5 24.5q53 0 101.5 -16.5t85.5 -49t59.5 -78.5t22.5 -108q0 -76 -24.5 -136.5t-68.5 -103.5t-104.5 -66.5t-134.5 -23.5q-53 0 -100 17.5t-84 49.5t-58.5 78t-21.5 101zM467 1135q0 -57 28.5 -81t73.5 -24 q66 0 105 42t39 106q0 57 -32 81.5t-79 24.5q-63 0 -99 -44t-36 -105z" />
<glyph unicode="&#xb1;" horiz-adv-x="1030" d="M94 49q0 10 4 36t8 50l29 141h770q63 0 64 -53q0 -10 -3 -35.5t-8 -50.5l-28 -141h-770q-66 0 -66 53zM223 700q0 10 4 36t9 50l28 142h277l55 278h244q23 0 33 -6t10 -26q0 -8 -2 -23.5t-4 -20.5l-41 -202h198q63 0 64 -56q0 -10 -4 -34.5t-9 -49.5l-26 -141h-279 l-55 -282h-242q-23 0 -34 6t-11 26q0 8 2 22.5t4 20.5l39 207h-196q-63 0 -64 53z" />
<glyph unicode="&#xb2;" horiz-adv-x="780" d="M182 614q0 10 8 41q16 45 40 90.5t60 90.5t89 90t127 88q82 47 122 78.5t40 72.5q0 29 -25 47.5t-80 18.5q-33 0 -62.5 -7t-54 -15.5t-44 -15.5t-31.5 -7q-33 0 -33 33q0 4 3 24.5t7 36.5l12 59q27 16 93.5 41t156.5 25q57 0 109.5 -11.5t91.5 -37t61.5 -66.5t22.5 -100 q0 -49 -18.5 -91t-50 -78t-73.5 -67.5t-89 -60.5q-72 -43 -123.5 -76t-67.5 -59h291q70 0 70 -53q0 -16 -2.5 -33t-10.5 -58l-10 -41h-584q-25 0 -35 13.5t-10 27.5z" />
<glyph unicode="&#xb3;" horiz-adv-x="780" d="M201 653q0 10 1 21.5t11 40.5l25 69q41 -16 89 -30.5t113 -14.5q66 0 109 21.5t43 77.5q0 35 -28.5 49t-80.5 14h-28q-63 0 -64 35q0 4 2 14.5t6 26.5l23 96h86q78 0 114.5 25.5t36.5 66.5q0 27 -19 45.5t-67 18.5q-31 0 -59.5 -7.5t-56 -14.5t-50 -14t-40.5 -7 q-31 0 -31 33q0 10 3 23t5 24l16 69q35 23 97.5 45.5t152.5 22.5q55 0 105.5 -12.5t88.5 -38t60.5 -64.5t22.5 -92q0 -68 -45 -123t-125 -88q47 -20 78.5 -60t31.5 -100q0 -61 -28.5 -111t-77.5 -86t-114.5 -54.5t-139.5 -18.5q-72 0 -120 12.5t-91 30.5q-20 8 -37.5 22.5 t-17.5 32.5z" />
<glyph unicode="&#xb4;" horiz-adv-x="903" d="M287 1198q0 16 12 39q45 76 94 145.5t99 133.5h253q45 0 46 -33q0 -16 -13.5 -34.5t-32.5 -35.5l-249 -244h-174q-35 0 -35 29z" />
<glyph unicode="&#xb5;" horiz-adv-x="1122" d="M35 -309q0 4 2 16t10 56t25.5 130.5t49.5 238t78 378.5t113 555h242q51 0 64.5 -17.5t13.5 -39.5q0 -8 -2 -23.5t-5 -34t-7.5 -38t-6.5 -33.5q-35 -176 -55 -280.5t-31.5 -162t-14.5 -81t-3 -36.5q0 -33 19.5 -50t47.5 -17q49 0 86 23.5t60 43.5l149 746h250 q47 0 59.5 -17.5t12.5 -37.5q0 -10 -3 -27.5t-6 -37t-6 -38t-6 -26.5l-88 -447q-10 -51 -18 -111.5t-14.5 -120t-10.5 -111.5t-4 -89h-174q-41 0 -57.5 13.5t-24.5 47.5l-24 87q-59 -80 -133 -123t-162 -43q-16 0 -25.5 1t-19.5 5q-16 -102 -35 -185.5t-39 -152.5h-262 q-45 0 -45 39z" />
<glyph unicode="&#xb6;" horiz-adv-x="1312" d="M270 897q0 154 50.5 258.5t142.5 166.5t223 90t293 28q102 0 190 -6.5t154 -16.5q49 -8 80 -20.5t31 -53.5q0 -6 -1 -13t-3 -17l-31 -152h-86q-10 -109 -28.5 -217t-37.5 -201l-180 -913h-201q-45 0 -45 39q0 6 2 17.5t4 25.5t5.5 25.5t3.5 17.5l241 1216 q-23 4 -52.5 5.5t-45.5 1.5h-22.5t-32.5 -2l-267 -1346h-200q-45 0 -45 39q0 6 2 17.5t4 25.5t5 25.5t3 17.5l115 571q-51 8 -99.5 36t-86.5 75t-61.5 112.5t-23.5 147.5z" />
<glyph unicode="&#xb7;" horiz-adv-x="528" d="M193 659q0 111 60.5 165t162.5 54q86 0 130 -40t44 -103q0 -111 -58.5 -166t-162.5 -55q-86 0 -131 41t-45 104z" />
<glyph unicode="&#xb8;" horiz-adv-x="892" d="M231 -381q0 10 3.5 19.5t7.5 25.5l14 41q10 -4 35.5 -8t52.5 -4q43 0 68.5 14t25.5 47q0 23 -18.5 33t-42.5 16l-17 4q-16 4 -25 10.5t-9 20.5q0 20 10 42t24 44l50 86h153l-65 -114l32 -9q47 -12 84 -41.5t37 -93.5q0 -45 -20.5 -79.5t-54 -59.5t-80.5 -37t-99 -12 q-35 0 -68.5 5t-68.5 17q-29 10 -29 33z" />
<glyph unicode="&#xb9;" horiz-adv-x="780" d="M328 1157q0 6 2 21.5t4 25.5l16 74l39 16q39 16 93.5 36t108.5 36t99 27.5t64 11.5q35 0 49 -14.5t14 -36.5q0 -10 -6 -41l-149 -740h-173q-27 0 -40 13.5t-13 34.5q0 29 7.5 68.5t15.5 76.5l86 393l-113 -33q-14 -4 -30.5 -9t-26.5 -5q-29 0 -38 14.5t-9 30.5z" />
<glyph unicode="&#xba;" horiz-adv-x="778" d="M197 532q0 10 4 36t8 50l8 50h504q63 0 63 -54q0 -10 -4 -35.5t-8 -52.5l-8 -47h-502q-66 0 -65 53zM260 1010q0 84 25.5 162.5t75 140t122 98.5t166.5 37q123 0 202 -63.5t79 -192.5q0 -84 -25.5 -163t-75 -139.5t-122 -97t-166.5 -36.5q-123 0 -202 63.5t-79 190.5z M481 1008q0 -37 15.5 -69t58.5 -32q37 0 65.5 27t48 68.5t30 94t10.5 105.5q0 35 -15.5 66.5t-58.5 31.5q-37 0 -65.5 -25.5t-48 -67.5t-30 -94t-10.5 -105z" />
<glyph unicode="&#xbb;" horiz-adv-x="1019" d="M106 172q0 10 3.5 24.5t9.5 24.5l200 309l-81 398h196q31 0 52.5 -14.5t31.5 -55.5l94 -328l-266 -397h-192q-47 0 -48 39zM565 172q0 10 3.5 24.5t9.5 24.5l200 309l-81 398h196q31 0 52.5 -14.5t31.5 -55.5l94 -328l-266 -397h-192q-47 0 -48 39z" />
<glyph unicode="&#xbc;" horiz-adv-x="1957" d="M336 1157q0 6 2 21.5t4 25.5l16 74l39 16q39 16 93.5 36t108.5 36t99 27.5t64 11.5q35 0 49 -14.5t14 -36.5q0 -10 -6 -41l-149 -740h-173q-27 0 -40 13.5t-13 34.5q0 29 7.5 68.5t15.5 76.5l86 393l-113 -33q-14 -4 -30.5 -9t-26.5 -5q-29 0 -38 14.5t-9 30.5zM399 43 q0 10 7 22.5t16 22.5l1032 1298h174q29 0 42 -13t13 -30q0 -10 -7 -22t-15 -23l-1037 -1298h-170q-29 0 -42 13.5t-13 29.5zM1091 234q0 6 4 30.5t19 84.5q27 49 79 110.5t115.5 125t132 122.5t130.5 106h147q63 0 63 -38q0 -6 -2 -17.5t-10 -52.5t-26.5 -123.5 t-49.5 -232.5q35 0 50.5 -14.5t15.5 -37.5q0 -14 -5 -43.5t-11 -62.5h-84l-41 -189h-134q-35 0 -49 13.5t-14 34.5q0 6 2 21t6 28l21 92h-291q-68 0 -68 43zM1300 349h187q8 37 14 68.5t12 62t13.5 62.5t15.5 71q-25 -25 -58.5 -57.5t-67.5 -68.5t-64.5 -72t-51.5 -66z" />
<glyph unicode="&#xbd;" horiz-adv-x="1957" d="M295 1157q0 6 2 21.5t4 25.5l16 74l39 16q39 16 93.5 36t108.5 36t99 27.5t64 11.5q35 0 49 -14.5t14 -36.5q0 -10 -6 -41l-149 -740h-173q-27 0 -40 13.5t-13 34.5q0 29 7.5 68.5t15.5 76.5l86 393l-113 -33q-14 -4 -30.5 -9t-26.5 -5q-29 0 -38 14.5t-9 30.5zM356 43 q0 10 7 22.5t16 22.5l1032 1298h174q29 0 42 -13t13 -30q0 -10 -7 -22t-15 -23l-1037 -1298h-170q-29 0 -42 13.5t-13 29.5zM1149 39q0 10 8 41q16 45 40 90.5t60 90.5t89 90t127 88q82 47 122 78.5t40 72.5q0 29 -25 47.5t-80 18.5q-33 0 -62.5 -7t-54 -15.5t-44 -15.5 t-31.5 -7q-33 0 -33 33q0 4 3 24.5t7 36.5l12 59q27 16 93.5 41t156.5 25q57 0 109.5 -11.5t91.5 -37t61.5 -66.5t22.5 -100q0 -49 -18.5 -91t-50 -78t-73.5 -67.5t-89 -60.5q-72 -43 -123.5 -76t-67.5 -59h291q70 0 70 -53q0 -16 -2.5 -33t-10.5 -58l-10 -41h-584 q-25 0 -35 13.5t-10 27.5z" />
<glyph unicode="&#xbe;" horiz-adv-x="1957" d="M271 653q0 10 1 21.5t11 40.5l25 69q41 -16 89 -30.5t113 -14.5q66 0 109 21.5t43 77.5q0 35 -28.5 49t-80.5 14h-28q-63 0 -64 35q0 4 2 14.5t6 26.5l23 96h86q78 0 114.5 25.5t36.5 66.5q0 27 -19 45.5t-67 18.5q-31 0 -59.5 -7.5t-56 -14.5t-50 -14t-40.5 -7 q-31 0 -31 33q0 10 3 23t5 24l16 69q35 23 97.5 45.5t152.5 22.5q55 0 105.5 -12.5t88.5 -38t60.5 -64.5t22.5 -92q0 -68 -45 -123t-125 -88q47 -20 78.5 -60t31.5 -100q0 -61 -28.5 -111t-77.5 -86t-114.5 -54.5t-139.5 -18.5q-72 0 -120 12.5t-91 30.5q-20 8 -37.5 22.5 t-17.5 32.5zM508 43q0 10 7 22.5t16 22.5l1032 1298h174q29 0 42 -13t13 -30q0 -10 -7 -22t-15 -23l-1037 -1298h-170q-29 0 -42 13.5t-13 29.5zM1200 234q0 6 4 30.5t19 84.5q27 49 79 110.5t115.5 125t132 122.5t130.5 106h147q63 0 63 -38q0 -6 -2 -17.5t-10 -52.5 t-26.5 -123.5t-49.5 -232.5q35 0 50.5 -14.5t15.5 -37.5q0 -14 -5 -43.5t-11 -62.5h-84l-41 -189h-134q-35 0 -49 13.5t-14 34.5q0 6 2 21t6 28l21 92h-291q-68 0 -68 43zM1409 349h187q8 37 14 68.5t12 62t13.5 62.5t15.5 71q-25 -25 -58.5 -57.5t-67.5 -68.5t-64.5 -72 t-51.5 -66z" />
<glyph unicode="&#xbf;" horiz-adv-x="888" d="M6 -51q0 76 20.5 134t57.5 106.5t88 92.5t113 91q35 27 67.5 51.5t58 52t44 61t24.5 80.5h146q41 0 67.5 -14t26.5 -80q0 -57 -17.5 -100t-45 -78t-61.5 -62.5t-65 -52.5q-25 -20 -58.5 -42.5t-62 -50t-49 -60.5t-20.5 -70q0 -63 43 -88.5t102 -25.5q31 0 64 7t62.5 16 t53 16.5t37.5 7.5q51 0 52 -52q0 -12 -3 -42.5t-12 -71.5l-14 -72q-12 -8 -43 -21.5t-75 -26.5t-100 -22.5t-122 -9.5q-80 0 -148.5 21.5t-119.5 62.5t-81 101.5t-30 140.5zM428 864q0 111 58.5 166t162.5 55q86 0 131 -40.5t45 -104.5q0 -111 -60 -165t-163 -54 q-86 0 -130 40t-44 103z" />
<glyph unicode="&#xc0;" horiz-adv-x="1116" d="M49 51q0 27 6 51.5t17 53.5q113 340 245 647t293 616h328q41 0 61.5 -19.5t28.5 -58.5q12 -70 23.5 -159.5t18.5 -192t12 -215t5 -225.5q0 -135 -4 -270.5t-12 -278.5h-262q-37 0 -51.5 17.5t-14.5 50.5l2 34q2 25 6.5 61t7.5 70.5t5 66.5t2 48h-297q-31 -94 -58.5 -186 t-45.5 -162h-242q-41 0 -57.5 14.5t-16.5 36.5zM473 1851h260q43 0 65.5 -12t47.5 -51q37 -57 70.5 -127t62.5 -135h-178q-61 0 -99 45zM549 602h227q4 41 6 95.5t2 123.5q0 74 -3 169.5t-11 187.5q-78 -168 -130 -312.5t-91 -263.5z" />
<glyph unicode="&#xc1;" horiz-adv-x="1116" d="M49 51q0 27 6 51.5t17 53.5q113 340 245 647t293 616h328q41 0 61.5 -19.5t28.5 -58.5q12 -70 23.5 -159.5t18.5 -192t12 -215t5 -225.5q0 -135 -4 -270.5t-12 -278.5h-262q-37 0 -51.5 17.5t-14.5 50.5l2 34q2 25 6.5 61t7.5 70.5t5 66.5t2 48h-297q-31 -94 -58.5 -186 t-45.5 -162h-242q-41 0 -57.5 14.5t-16.5 36.5zM549 602h227q4 41 6 95.5t2 123.5q0 74 -3 169.5t-11 187.5q-78 -168 -130 -312.5t-91 -263.5zM677 1550q0 10 6.5 21.5t12.5 21.5q39 61 92 130t107 128h253q45 0 46 -32q0 -16 -13.5 -35t-32.5 -35l-249 -223h-185 q-18 0 -27.5 7t-9.5 17z" />
<glyph unicode="&#xc2;" horiz-adv-x="1116" d="M49 51q0 27 6 51.5t17 53.5q113 340 245 647t293 616h328q41 0 61.5 -19.5t28.5 -58.5q12 -70 23.5 -159.5t18.5 -192t12 -215t5 -225.5q0 -135 -4 -270.5t-12 -278.5h-262q-37 0 -51.5 17.5t-14.5 50.5l2 34q2 25 6.5 61t7.5 70.5t5 66.5t2 48h-297q-31 -94 -58.5 -186 t-45.5 -162h-242q-41 0 -57.5 14.5t-16.5 36.5zM492 1552q0 16 14 41q53 78 119 141.5t125 116.5h217q29 0 45 -13t37 -50q29 -53 60.5 -126t50.5 -136h-164q-33 0 -48.5 11t-29.5 38l-55 106l-144 -155h-192q-35 0 -35 26zM549 602h227q4 41 6 95.5t2 123.5q0 74 -3 169.5 t-11 187.5q-78 -168 -130 -312.5t-91 -263.5z" />
<glyph unicode="&#xc3;" horiz-adv-x="1116" d="M49 51q0 27 6 51.5t17 53.5q113 340 245 647t293 616h328q41 0 61.5 -19.5t28.5 -58.5q12 -70 23.5 -159.5t18.5 -192t12 -215t5 -225.5q0 -135 -4 -270.5t-12 -278.5h-262q-37 0 -51.5 17.5t-14.5 50.5l2 34q2 25 6.5 61t7.5 70.5t5 66.5t2 48h-297q-31 -94 -58.5 -186 t-45.5 -162h-242q-41 0 -57.5 14.5t-16.5 36.5zM465 1583q0 47 18.5 93t52 82t78.5 58.5t101 22.5q41 0 82 -11t82 -44q23 -18 46 -38t48 -20q35 0 53 107h127q33 0 41 -10.5t8 -30.5q0 -47 -18.5 -93t-52 -83t-81 -59.5t-104.5 -22.5q-39 0 -79 11t-74 40q-20 16 -45 39 t-50 23q-23 0 -35 -28t-22 -79h-127q-33 0 -41 10.5t-8 32.5zM549 602h227q4 41 6 95.5t2 123.5q0 74 -3 169.5t-11 187.5q-78 -168 -130 -312.5t-91 -263.5z" />
<glyph unicode="&#xc4;" horiz-adv-x="1116" d="M49 51q0 27 6 51.5t17 53.5q113 340 245 647t293 616h328q41 0 61.5 -19.5t28.5 -58.5q12 -70 23.5 -159.5t18.5 -192t12 -215t5 -225.5q0 -135 -4 -270.5t-12 -278.5h-262q-37 0 -51.5 17.5t-14.5 50.5l2 34q2 25 6.5 61t7.5 70.5t5 66.5t2 48h-297q-31 -94 -58.5 -186 t-45.5 -162h-242q-41 0 -57.5 14.5t-16.5 36.5zM440 1632q0 102 54.5 147.5t148.5 45.5q154 0 153 -119q0 -98 -52 -145.5t-148 -47.5q-78 0 -117 32t-39 87zM549 602h227q4 41 6 95.5t2 123.5q0 74 -3 169.5t-11 187.5q-78 -168 -130 -312.5t-91 -263.5zM882 1632 q0 102 54.5 147.5t148.5 45.5q154 0 154 -119q0 -98 -52.5 -145.5t-148.5 -47.5q-78 0 -117 32t-39 87z" />
<glyph unicode="&#xc5;" horiz-adv-x="1116" d="M49 51q0 27 6 51.5t17 53.5q113 340 245 647t293 616h328q41 0 61.5 -19.5t28.5 -58.5q12 -70 23.5 -159.5t18.5 -192t12 -215t5 -225.5q0 -135 -4 -270.5t-12 -278.5h-262q-37 0 -51.5 17.5t-14.5 50.5l2 34q2 25 6.5 61t7.5 70.5t5 66.5t2 48h-297q-31 -94 -58.5 -186 t-45.5 -162h-242q-41 0 -57.5 14.5t-16.5 36.5zM549 602h227q4 41 6 95.5t2 123.5q0 74 -3 169.5t-11 187.5q-78 -168 -130 -312.5t-91 -263.5zM598 1651q0 141 78 209.5t207 68.5q111 0 167 -50t56 -132q0 -139 -75.5 -210t-206.5 -71q-111 0 -168.5 51.5t-57.5 133.5z M740 1677q0 -35 25.5 -59.5t76.5 -24.5q57 0 92 33t35 96q0 37 -25.5 59.5t-74.5 22.5q-59 0 -94 -30.5t-35 -96.5z" />
<glyph unicode="&#xc6;" horiz-adv-x="1601" d="M49 49q0 14 4 31q4 23 12.5 43t16.5 37q74 162 162 333t183 335.5t193.5 316t194.5 274.5h854q63 0 64 -53q0 -10 -4.5 -35.5t-8.5 -50.5l-26 -143h-484l-51 -271h342q63 0 64 -53q0 -10 -4.5 -35.5t-8.5 -50.5l-28 -143h-422l-58 -301h416q63 0 64 -54q0 -10 -4 -35.5 t-9 -50.5l-26 -143h-715q-61 0 -61 51q0 10 4 31l49 248h-264q-41 -92 -81 -179.5t-63 -150.5h-256q-29 0 -39 13.5t-10 35.5zM606 614h217l107 557q-111 -166 -187.5 -305t-136.5 -252z" />
<glyph unicode="&#xc7;" horiz-adv-x="1064" d="M213 465q0 205 55.5 384t154.5 311t234 209t295 77q41 0 91.5 -6t93.5 -19.5t72.5 -33t29.5 -46.5q0 -23 -8 -50t-19 -60l-38 -111q-29 10 -77 19.5t-110 9.5q-102 0 -181 -56.5t-132 -147.5t-80 -206.5t-27 -236.5q0 -119 39 -174.5t137 -55.5q31 0 70 4.5t86 18.5 q10 4 22.5 7t22.5 3q27 0 37 -21.5t14 -47.5l33 -177q-51 -29 -139 -56.5t-211 -31.5l-43 -75l33 -9q47 -12 83.5 -41.5t36.5 -93.5q0 -45 -20 -79.5t-54 -59.5t-81 -37t-98 -12q-35 0 -69 5t-69 17q-29 10 -28 33q0 10 3 19.5t7 25.5l14 41q10 -4 36 -8t52 -4q43 0 68.5 14 t25.5 47q0 23 -18 33t-43 16l-16 4q-16 4 -25.5 10.5t-9.5 20.5q0 20 10 42t25 44l32 60q-152 33 -234.5 153.5t-82.5 327.5z" />
<glyph unicode="&#xc8;" horiz-adv-x="1034" d="M125 59q0 20 12.5 80t22.5 125l225 1155h735q63 0 64 -53q0 -10 -4 -35.5t-9 -50.5l-26 -143h-483l-52 -271h342q63 0 64 -53q0 -10 -4 -35.5t-8 -50.5l-29 -143h-422l-57 -301h415q63 0 64 -54q0 -10 -4 -35.5t-8 -50.5l-27 -143h-741q-39 0 -54.5 15.5t-15.5 43.5z M508 1869h268q43 0 61.5 -11t36.5 -50q55 -139 103 -283h-166q-33 0 -55.5 8.5t-38.5 36.5z" />
<glyph unicode="&#xc9;" horiz-adv-x="1034" d="M125 59q0 20 12.5 80t22.5 125l225 1155h735q63 0 64 -53q0 -10 -4 -35.5t-9 -50.5l-26 -143h-483l-52 -271h342q63 0 64 -53q0 -10 -4 -35.5t-8 -50.5l-29 -143h-422l-57 -301h415q63 0 64 -54q0 -10 -4 -35.5t-8 -50.5l-27 -143h-741q-39 0 -54.5 15.5t-15.5 43.5z M612 1550q0 10 6.5 21.5t12.5 21.5q39 61 92 130t107 128h253q45 0 46 -32q0 -16 -13.5 -35t-32.5 -35l-249 -223h-185q-18 0 -27.5 7t-9.5 17z" />
<glyph unicode="&#xca;" horiz-adv-x="1034" d="M125 59q0 20 12.5 80t22.5 125l225 1155h735q63 0 64 -53q0 -10 -4 -35.5t-9 -50.5l-26 -143h-483l-52 -271h342q63 0 64 -53q0 -10 -4 -35.5t-8 -50.5l-29 -143h-422l-57 -301h415q63 0 64 -54q0 -10 -4 -35.5t-8 -50.5l-27 -143h-741q-39 0 -54.5 15.5t-15.5 43.5z M479 1552q0 16 14 41q53 78 119 141.5t125 116.5h217q29 0 45 -13t37 -50q29 -53 60.5 -126t50.5 -136h-164q-33 0 -48.5 11t-29.5 38l-55 106l-144 -155h-192q-35 0 -35 26z" />
<glyph unicode="&#xcb;" horiz-adv-x="1034" d="M125 59q0 20 12.5 80t22.5 125l225 1155h735q63 0 64 -53q0 -10 -4 -35.5t-9 -50.5l-26 -143h-483l-52 -271h342q63 0 64 -53q0 -10 -4 -35.5t-8 -50.5l-29 -143h-422l-57 -301h415q63 0 64 -54q0 -10 -4 -35.5t-8 -50.5l-27 -143h-741q-39 0 -54.5 15.5t-15.5 43.5z M426 1632q0 102 54.5 147.5t148.5 45.5q154 0 153 -119q0 -98 -52 -145.5t-148 -47.5q-78 0 -117 32t-39 87zM868 1632q0 102 54.5 147.5t148.5 45.5q154 0 154 -119q0 -98 -52.5 -145.5t-148.5 -47.5q-78 0 -117 32t-39 87z" />
<glyph unicode="&#xcc;" horiz-adv-x="571" d="M125 59q0 20 11 80t24 125l225 1155h258q39 0 54.5 -15t15.5 -44q0 -20 -12.5 -79.5t-24.5 -125.5l-225 -1155h-256q-39 0 -54.5 15.5t-15.5 43.5zM227 1851h260q43 0 65.5 -12t47.5 -51q37 -57 70.5 -127t62.5 -135h-178q-61 0 -99 45z" />
<glyph unicode="&#xcd;" horiz-adv-x="571" d="M125 59q0 20 11 80t24 125l225 1155h258q39 0 54.5 -15t15.5 -44q0 -20 -12.5 -79.5t-24.5 -125.5l-225 -1155h-256q-39 0 -54.5 15.5t-15.5 43.5zM393 1550q0 10 6.5 21.5t12.5 21.5q39 61 92 130t107 128h253q45 0 46 -32q0 -16 -13.5 -35t-32.5 -35l-249 -223h-185 q-18 0 -27.5 7t-9.5 17z" />
<glyph unicode="&#xce;" horiz-adv-x="571" d="M125 59q0 20 11 80t24 125l225 1155h258q39 0 54.5 -15t15.5 -44q0 -20 -12.5 -79.5t-24.5 -125.5l-225 -1155h-256q-39 0 -54.5 15.5t-15.5 43.5zM236 1552q0 16 14 41q53 78 119 141.5t125 116.5h217q29 0 45 -13t37 -50q29 -53 60.5 -126t50.5 -136h-164 q-33 0 -48.5 11t-29.5 38l-55 106l-144 -155h-192q-35 0 -35 26z" />
<glyph unicode="&#xcf;" horiz-adv-x="571" d="M125 59q0 20 11 80t24 125l225 1155h258q39 0 54.5 -15t15.5 -44q0 -20 -12.5 -79.5t-24.5 -125.5l-225 -1155h-256q-39 0 -54.5 15.5t-15.5 43.5zM209 1632q0 102 54.5 147.5t148.5 45.5q154 0 153 -119q0 -98 -52 -145.5t-148 -47.5q-78 0 -117 32t-39 87zM651 1632 q0 102 54.5 147.5t148.5 45.5q154 0 154 -119q0 -98 -52.5 -145.5t-148.5 -47.5q-78 0 -117 32t-39 87z" />
<glyph unicode="&#xd0;" horiz-adv-x="1220" d="M102 678q0 10 6.5 45t10.5 59l12 60h141l111 557q72 18 145.5 29.5t169.5 11.5q121 0 225.5 -30t180.5 -96.5t119 -172t43 -256.5q0 -203 -58.5 -367t-160 -278.5t-238.5 -177t-293 -62.5h-321q-39 0 -54.5 15.5t-15.5 43.5q0 20 11 80t24 125l69 361h-61q-66 0 -66 53z M496 272h45q86 0 157.5 49.5t123.5 135.5t81 202.5t29 253.5q0 53 -11.5 99.5t-35 81t-60.5 55t-90 20.5q-41 0 -61 -6l-66 -321h109q63 0 63 -56q0 -10 -6 -43.5t-10 -58.5l-12 -59h-187z" />
<glyph unicode="&#xd1;" horiz-adv-x="1226" d="M127 59q0 20 11.5 80t23.5 125l221 1155h227q51 0 75 -14t38 -59q20 -72 44 -168.5t46.5 -202t44 -213t39.5 -201.5l168 858h231q37 0 52.5 -15t15.5 -44q0 -20 -12.5 -79.5t-22.5 -125.5l-221 -1155h-252q-35 0 -56.5 16.5t-29.5 57.5q-16 86 -37.5 197.5t-44 225 t-46.5 219t-44 181.5l-172 -897h-231q-37 0 -52.5 15.5t-15.5 43.5zM539 1583q0 47 18.5 93t52 82t78.5 58.5t101 22.5q41 0 82 -11t82 -44q23 -18 46 -38t48 -20q35 0 53 107h127q33 0 41 -10.5t8 -30.5q0 -47 -18.5 -93t-52 -83t-81 -59.5t-104.5 -22.5q-39 0 -79 11 t-74 40q-20 16 -45 39t-50 23q-23 0 -35 -28t-22 -79h-127q-33 0 -41 10.5t-8 32.5z" />
<glyph unicode="&#xd2;" horiz-adv-x="1296" d="M213 502q0 211 47 385t133 298t205 192.5t262 68.5q117 0 206 -39t150.5 -109.5t93 -168t31.5 -214.5q0 -211 -47 -385t-133 -297.5t-205 -192.5t-262 -69q-117 0 -206 39t-150.5 109.5t-93 168t-31.5 214.5zM508 1851h260q43 0 65.5 -12t47.5 -51q37 -57 70.5 -127 t62.5 -135h-178q-61 0 -99 45zM559 496q0 -43 7 -85t23.5 -74t46.5 -52.5t73 -20.5q61 0 113 52.5t90 142.5t59.5 208.5t23.5 254.5q0 43 -7 85t-24.5 73.5t-46 52t-73.5 20.5q-61 0 -112.5 -52t-89.5 -142.5t-59.5 -209t-23.5 -253.5z" />
<glyph unicode="&#xd3;" horiz-adv-x="1296" d="M213 502q0 211 47 385t133 298t205 192.5t262 68.5q117 0 206 -39t150.5 -109.5t93 -168t31.5 -214.5q0 -211 -47 -385t-133 -297.5t-205 -192.5t-262 -69q-117 0 -206 39t-150.5 109.5t-93 168t-31.5 214.5zM559 496q0 -43 7 -85t23.5 -74t46.5 -52.5t73 -20.5 q61 0 113 52.5t90 142.5t59.5 208.5t23.5 254.5q0 43 -7 85t-24.5 73.5t-46 52t-73.5 20.5q-61 0 -112.5 -52t-89.5 -142.5t-59.5 -209t-23.5 -253.5zM729 1550q0 10 6.5 21.5t12.5 21.5q39 61 92 130t107 128h253q45 0 46 -32q0 -16 -13.5 -35t-32.5 -35l-249 -223h-185 q-18 0 -27.5 7t-9.5 17z" />
<glyph unicode="&#xd4;" horiz-adv-x="1296" d="M213 502q0 211 47 385t133 298t205 192.5t262 68.5q117 0 206 -39t150.5 -109.5t93 -168t31.5 -214.5q0 -211 -47 -385t-133 -297.5t-205 -192.5t-262 -69q-117 0 -206 39t-150.5 109.5t-93 168t-31.5 214.5zM559 496q0 -43 7 -85t23.5 -74t46.5 -52.5t73 -20.5 q61 0 113 52.5t90 142.5t59.5 208.5t23.5 254.5q0 43 -7 85t-24.5 73.5t-46 52t-73.5 20.5q-61 0 -112.5 -52t-89.5 -142.5t-59.5 -209t-23.5 -253.5zM563 1552q0 16 14 41q53 78 119 141.5t125 116.5h217q29 0 45 -13t37 -50q29 -53 60.5 -126t50.5 -136h-164 q-33 0 -48.5 11t-29.5 38l-55 106l-144 -155h-192q-35 0 -35 26z" />
<glyph unicode="&#xd5;" horiz-adv-x="1296" d="M213 502q0 211 47 385t133 298t205 192.5t262 68.5q117 0 206 -39t150.5 -109.5t93 -168t31.5 -214.5q0 -211 -47 -385t-133 -297.5t-205 -192.5t-262 -69q-117 0 -206 39t-150.5 109.5t-93 168t-31.5 214.5zM559 496q0 -43 7 -85t23.5 -74t46.5 -52.5t73 -20.5 q61 0 113 52.5t90 142.5t59.5 208.5t23.5 254.5q0 43 -7 85t-24.5 73.5t-46 52t-73.5 20.5q-61 0 -112.5 -52t-89.5 -142.5t-59.5 -209t-23.5 -253.5zM572 1583q0 47 18.5 93t52 82t78.5 58.5t101 22.5q41 0 82 -11t82 -44q23 -18 46 -38t48 -20q35 0 53 107h127 q33 0 41 -10.5t8 -30.5q0 -47 -18.5 -93t-52 -83t-81 -59.5t-104.5 -22.5q-39 0 -79 11t-74 40q-20 16 -45 39t-50 23q-23 0 -35 -28t-22 -79h-127q-33 0 -41 10.5t-8 32.5z" />
<glyph unicode="&#xd6;" horiz-adv-x="1296" d="M213 502q0 211 47 385t133 298t205 192.5t262 68.5q117 0 206 -39t150.5 -109.5t93 -168t31.5 -214.5q0 -211 -47 -385t-133 -297.5t-205 -192.5t-262 -69q-117 0 -206 39t-150.5 109.5t-93 168t-31.5 214.5zM543 1632q0 102 54.5 147.5t148.5 45.5q154 0 153 -119 q0 -98 -52 -145.5t-148 -47.5q-78 0 -117 32t-39 87zM559 496q0 -43 7 -85t23.5 -74t46.5 -52.5t73 -20.5q61 0 113 52.5t90 142.5t59.5 208.5t23.5 254.5q0 43 -7 85t-24.5 73.5t-46 52t-73.5 20.5q-61 0 -112.5 -52t-89.5 -142.5t-59.5 -209t-23.5 -253.5zM985 1632 q0 102 54.5 147.5t148.5 45.5q154 0 154 -119q0 -98 -52.5 -145.5t-148.5 -47.5q-78 0 -117 32t-39 87z" />
<glyph unicode="&#xd7;" d="M213 473q0 39 37 70l211 168l-219 274l172 145q31 25 59 25q25 0 47 -27l168 -225l279 238l133 -168q14 -20 14 -43q0 -39 -37 -70l-211 -166l219 -260l-174 -147q-29 -27 -59 -27q-25 0 -47 29l-166 215l-279 -242l-133 168q-14 20 -14 43z" />
<glyph unicode="&#xd8;" horiz-adv-x="1296" d="M109 -14q0 6 1 12t11 18l153 197q-61 119 -61 289q0 211 47 385t133 298t205 192.5t262 68.5q94 0 170 -26.5t135 -73.5l84 108h156q12 0 21.5 -7t9.5 -17q0 -4 -1 -12.5t-12 -20.5l-147 -189q66 -125 65 -293q0 -211 -47 -385t-133 -297.5t-205 -192.5t-262 -69 q-98 0 -175 27t-136 76l-90 -115h-154q-10 0 -20 7t-10 20zM561 578l400 507q-18 31 -47 49.5t-70 18.5q-57 0 -105.5 -45t-85.5 -123t-60.5 -183.5t-31.5 -223.5zM590 336q16 -33 45 -52.5t74 -19.5q57 0 106 45t86 124t61.5 185.5t30.5 227.5z" />
<glyph unicode="&#xd9;" horiz-adv-x="1181" d="M180 334q0 41 6.5 101.5t20.5 125.5l170 858h264q41 0 56.5 -15t15.5 -44q0 -20 -12.5 -79.5t-24.5 -125.5l-135 -670q-6 -29 -10.5 -52t-4.5 -44q0 -53 31 -85t84 -32q76 0 114 57.5t60 162.5l182 927h265q41 0 55 -15t14 -44q0 -20 -11 -79.5t-24 -125.5l-122 -625 q-29 -141 -65 -245.5t-97.5 -174t-155.5 -103.5t-235 -34q-80 0 -159 16.5t-141.5 56.5t-101.5 109.5t-39 178.5zM450 1851h260q43 0 65.5 -12t47.5 -51q37 -57 70.5 -127t62.5 -135h-178q-61 0 -99 45z" />
<glyph unicode="&#xda;" horiz-adv-x="1181" d="M180 334q0 41 6.5 101.5t20.5 125.5l170 858h264q41 0 56.5 -15t15.5 -44q0 -20 -12.5 -79.5t-24.5 -125.5l-135 -670q-6 -29 -10.5 -52t-4.5 -44q0 -53 31 -85t84 -32q76 0 114 57.5t60 162.5l182 927h265q41 0 55 -15t14 -44q0 -20 -11 -79.5t-24 -125.5l-122 -625 q-29 -141 -65 -245.5t-97.5 -174t-155.5 -103.5t-235 -34q-80 0 -159 16.5t-141.5 56.5t-101.5 109.5t-39 178.5zM727 1550q0 10 6.5 21.5t12.5 21.5q39 61 92 130t107 128h253q45 0 46 -32q0 -16 -13.5 -35t-32.5 -35l-249 -223h-185q-18 0 -27.5 7t-9.5 17z" />
<glyph unicode="&#xdb;" horiz-adv-x="1181" d="M180 334q0 41 6.5 101.5t20.5 125.5l170 858h264q41 0 56.5 -15t15.5 -44q0 -20 -12.5 -79.5t-24.5 -125.5l-135 -670q-6 -29 -10.5 -52t-4.5 -44q0 -53 31 -85t84 -32q76 0 114 57.5t60 162.5l182 927h265q41 0 55 -15t14 -44q0 -20 -11 -79.5t-24 -125.5l-122 -625 q-29 -141 -65 -245.5t-97.5 -174t-155.5 -103.5t-235 -34q-80 0 -159 16.5t-141.5 56.5t-101.5 109.5t-39 178.5zM532 1552q0 16 14 41q53 84 117 152.5t121 126.5h221q29 0 44 -13.5t34 -50.5q31 -59 57.5 -137t42.5 -146h-174q-33 0 -44 7.5t-23 42.5l-45 127l-138 -177 h-192q-35 0 -35 27z" />
<glyph unicode="&#xdc;" horiz-adv-x="1181" d="M180 334q0 41 6.5 101.5t20.5 125.5l170 858h264q41 0 56.5 -15t15.5 -44q0 -20 -12.5 -79.5t-24.5 -125.5l-135 -670q-6 -29 -10.5 -52t-4.5 -44q0 -53 31 -85t84 -32q76 0 114 57.5t60 162.5l182 927h265q41 0 55 -15t14 -44q0 -20 -11 -79.5t-24 -125.5l-122 -625 q-29 -141 -65 -245.5t-97.5 -174t-155.5 -103.5t-235 -34q-80 0 -159 16.5t-141.5 56.5t-101.5 109.5t-39 178.5zM508 1632q0 102 54.5 147.5t148.5 45.5q154 0 153 -119q0 -98 -52 -145.5t-148 -47.5q-78 0 -117 32t-39 87zM950 1632q0 102 54.5 147.5t148.5 45.5 q154 0 154 -119q0 -98 -52.5 -145.5t-148.5 -47.5q-78 0 -117 32t-39 87z" />
<glyph unicode="&#xdd;" horiz-adv-x="1073" d="M293 1419h299q47 0 55 -24.5t8 -67.5q0 -96 5.5 -211t29.5 -280q102 178 169 320t110 263h248q72 0 71 -57q1 -31 -22 -80q-35 -80 -78 -168t-99.5 -184t-129 -201.5t-166.5 -222.5l-99 -506h-256q-41 0 -56 15.5t-15 43.5q0 20 12 80t24 125l52 268q-76 233 -115 446.5 t-47 440.5zM688 1550q0 10 6.5 21.5t12.5 21.5q39 61 92 130t107 128h253q45 0 46 -32q0 -16 -13.5 -35t-32.5 -35l-249 -223h-185q-18 0 -27.5 7t-9.5 17z" />
<glyph unicode="&#xde;" horiz-adv-x="1056" d="M113 59q0 20 11 80t23 125l232 1155h242q41 0 60 -11t19 -50q0 -8 -3 -30.5t-7 -47.5t-8 -47.5t-6 -30.5q92 0 182 -14t161 -53t114 -108t43 -177q0 -113 -33 -218.5t-98.5 -186t-164 -129t-229.5 -48.5q-49 0 -93 5.5t-69 11.5l-59 -285h-248q-39 0 -54 15.5t-15 43.5z M539 539q41 -8 79 -9q61 0 103.5 27t68 69t37 94t11.5 101q0 141 -152 142q-23 0 -40 -2.5t-23 -4.5z" />
<glyph unicode="&#xdf;" horiz-adv-x="1167" d="M119 53q0 16 7 55t17 97l170 852q47 225 176 330.5t332 105.5q82 0 156 -20.5t129 -61.5t87 -102.5t32 -145.5q0 -90 -41 -156.5t-101 -119.5q-37 -35 -64.5 -67t-27.5 -60q0 -27 33 -65t57 -68q43 -53 74 -120t31 -147q0 -90 -31 -159.5t-84 -117.5t-126 -73.5 t-157 -25.5q-53 0 -105 8t-93 31q-16 10 -29.5 22t-13.5 37q0 16 5 39.5t11 46.5l25 86q25 -6 58.5 -10t60.5 -4t53 4t47.5 15t34 30.5t12.5 48.5q0 41 -21.5 78t-64.5 90q-35 43 -66.5 89t-31.5 93q0 45 12 82t34.5 69.5t53.5 65.5t66 68q29 29 51 71.5t22 90.5 q0 45 -26.5 73.5t-75.5 28.5q-74 0 -109.5 -56.5t-54.5 -148.5l-207 -1032h-256q-61 0 -61 53z" />
<glyph unicode="&#xe0;" horiz-adv-x="1087" d="M166 373q0 141 38 270t113.5 227.5t186 157.5t256.5 59q92 0 165.5 -17t114.5 -36q61 -29 86 -51t25 -76q0 -10 -5 -41.5t-11 -56.5l-86 -377q-12 -51 -20.5 -111.5t-14.5 -120t-9.5 -111.5t-3.5 -89h-172q-39 0 -53 15.5t-22 45.5l-19 64q-61 -70 -124.5 -109 t-164.5 -39q-143 0 -211.5 106.5t-68.5 289.5zM496 389q0 -63 18 -98t57 -35q51 0 77 18.5t48 42.5l115 529q-10 4 -22.5 6t-28.5 2q-74 0 -124 -48t-81 -119t-45 -151.5t-14 -146.5zM529 1513h268q43 0 61.5 -11t36.5 -50q55 -139 103 -283h-166q-33 0 -55.5 8.5 t-38.5 36.5z" />
<glyph unicode="&#xe1;" horiz-adv-x="1087" d="M166 373q0 141 38 270t113.5 227.5t186 157.5t256.5 59q92 0 165.5 -17t114.5 -36q61 -29 86 -51t25 -76q0 -10 -5 -41.5t-11 -56.5l-86 -377q-12 -51 -20.5 -111.5t-14.5 -120t-9.5 -111.5t-3.5 -89h-172q-39 0 -53 15.5t-22 45.5l-19 64q-61 -70 -124.5 -109 t-164.5 -39q-143 0 -211.5 106.5t-68.5 289.5zM496 389q0 -63 18 -98t57 -35q51 0 77 18.5t48 42.5l115 529q-10 4 -22.5 6t-28.5 2q-74 0 -124 -48t-81 -119t-45 -151.5t-14 -146.5zM658 1198q0 16 12 39q45 76 94 145.5t99 133.5h253q45 0 46 -33q0 -16 -13.5 -34.5 t-32.5 -35.5l-249 -244h-174q-35 0 -35 29z" />
<glyph unicode="&#xe2;" horiz-adv-x="1087" d="M166 373q0 141 38 270t113.5 227.5t186 157.5t256.5 59q92 0 165.5 -17t114.5 -36q61 -29 86 -51t25 -76q0 -10 -5 -41.5t-11 -56.5l-86 -377q-12 -51 -20.5 -111.5t-14.5 -120t-9.5 -111.5t-3.5 -89h-172q-39 0 -53 15.5t-22 45.5l-19 64q-61 -70 -124.5 -109 t-164.5 -39q-143 0 -211.5 106.5t-68.5 289.5zM496 389q0 -63 18 -98t57 -35q51 0 77 18.5t48 42.5l115 529q-10 4 -22.5 6t-28.5 2q-74 0 -124 -48t-81 -119t-45 -151.5t-14 -146.5zM498 1196q0 16 14 41q53 84 117 152.5t121 126.5h221q29 0 44 -13.5t34 -50.5 q31 -59 57.5 -137t42.5 -146h-174q-33 0 -44 7.5t-23 42.5l-45 127l-138 -177h-192q-35 0 -35 27z" />
<glyph unicode="&#xe3;" horiz-adv-x="1087" d="M166 373q0 141 38 270t113.5 227.5t186 157.5t256.5 59q92 0 165.5 -17t114.5 -36q61 -29 86 -51t25 -76q0 -10 -5 -41.5t-11 -56.5l-86 -377q-12 -51 -20.5 -111.5t-14.5 -120t-9.5 -111.5t-3.5 -89h-172q-39 0 -53 15.5t-22 45.5l-19 64q-61 -70 -124.5 -109 t-164.5 -39q-143 0 -211.5 106.5t-68.5 289.5zM471 1227q0 47 18.5 93t52 82t78.5 58.5t101 22.5q41 0 82 -11.5t82 -44.5q23 -18 46 -37.5t48 -19.5q35 0 53 107h127q33 0 41 -10.5t8 -30.5q0 -47 -18.5 -93.5t-52 -83t-81 -59t-104.5 -22.5q-39 0 -79 11t-74 40 q-20 16 -45 38.5t-50 22.5q-23 0 -35 -27.5t-22 -78.5h-127q-33 0 -41 10t-8 33zM496 389q0 -63 18 -98t57 -35q51 0 77 18.5t48 42.5l115 529q-10 4 -22.5 6t-28.5 2q-74 0 -124 -48t-81 -119t-45 -151.5t-14 -146.5z" />
<glyph unicode="&#xe4;" horiz-adv-x="1087" d="M166 373q0 141 38 270t113.5 227.5t186 157.5t256.5 59q92 0 165.5 -17t114.5 -36q61 -29 86 -51t25 -76q0 -10 -5 -41.5t-11 -56.5l-86 -377q-12 -51 -20.5 -111.5t-14.5 -120t-9.5 -111.5t-3.5 -89h-172q-39 0 -53 15.5t-22 45.5l-19 64q-61 -70 -124.5 -109 t-164.5 -39q-143 0 -211.5 106.5t-68.5 289.5zM418 1286q0 102 54.5 147.5t148.5 45.5q154 0 153 -119q0 -98 -52 -145.5t-148 -47.5q-78 0 -117 32t-39 87zM496 389q0 -63 18 -98t57 -35q51 0 77 18.5t48 42.5l115 529q-10 4 -22.5 6t-28.5 2q-74 0 -124 -48t-81 -119 t-45 -151.5t-14 -146.5zM860 1286q0 102 54.5 147.5t148.5 45.5q154 0 154 -119q0 -98 -52.5 -145.5t-148.5 -47.5q-78 0 -117 32t-39 87z" />
<glyph unicode="&#xe5;" horiz-adv-x="1087" d="M166 373q0 141 38 270t113.5 227.5t186 157.5t256.5 59q92 0 165.5 -17t114.5 -36q61 -29 86 -51t25 -76q0 -10 -5 -41.5t-11 -56.5l-86 -377q-12 -51 -20.5 -111.5t-14.5 -120t-9.5 -111.5t-3.5 -89h-172q-39 0 -53 15.5t-22 45.5l-19 64q-61 -70 -124.5 -109 t-164.5 -39q-143 0 -211.5 106.5t-68.5 289.5zM496 389q0 -63 18 -98t57 -35q51 0 77 18.5t48 42.5l115 529q-10 4 -22.5 6t-28.5 2q-74 0 -124 -48t-81 -119t-45 -151.5t-14 -146.5zM612 1323q0 141 78 210t207 69q111 0 167 -50.5t56 -132.5q0 -139 -75.5 -209.5 t-206.5 -70.5q-111 0 -168.5 51t-57.5 133zM754 1350q0 -35 25.5 -59.5t76.5 -24.5q57 0 92 32.5t35 96.5q0 37 -25.5 59.5t-74.5 22.5q-59 0 -94 -31t-35 -96z" />
<glyph unicode="&#xe6;" horiz-adv-x="1576" d="M166 373q0 141 39 270t113.5 227.5t182 157.5t242.5 59q92 0 153.5 -28.5t102.5 -63.5q12 10 37 26.5t58.5 31t76.5 24.5t97 10q188 0 278 -83.5t90 -227.5q0 -70 -31.5 -138.5t-100 -123.5t-177 -90t-264.5 -35h-45q0 -43 14.5 -72.5t39 -48t56 -25.5t64.5 -7q41 0 83 7 t71 15q18 4 34.5 9t28.5 5q29 0 40 -19.5t21 -55.5l33 -131q-74 -39 -174 -66t-215 -27q-119 0 -197.5 37t-144.5 127q-66 -72 -136.5 -116t-168.5 -44q-154 0 -227.5 106.5t-73.5 289.5zM496 389q0 -63 20.5 -98t67.5 -35q41 0 69.5 24.5t46.5 53.5q-2 12 -2 25.5v25.5 q0 121 33 245t92 216q-10 4 -28.5 6t-34.5 2q-74 0 -124 -48t-81 -119t-45 -151.5t-14 -146.5zM1030 590h41q119 0 182.5 45t63.5 117q0 45 -26.5 70.5t-63.5 25.5q-68 0 -124 -68.5t-73 -189.5z" />
<glyph unicode="&#xe7;" horiz-adv-x="913" d="M170 391q0 123 35 247t104.5 224.5t175 162.5t248.5 62q55 0 105.5 -9t90.5 -24.5t63.5 -36t23.5 -42.5q0 -23 -7.5 -47.5t-17.5 -48.5l-39 -93q-23 10 -72 22.5t-106 12.5q-74 0 -125 -38t-85 -96t-49 -129t-15 -136q0 -78 33.5 -125t101.5 -47q27 0 53.5 2t54.5 10 q18 4 37 9t31 5q29 0 40 -19t21 -56l35 -133q-63 -39 -141 -61.5t-156 -29.5l-47 -81l33 -9q47 -12 84 -41.5t37 -93.5q0 -45 -20.5 -79.5t-54.5 -59.5t-81 -37t-98 -12q-35 0 -69 5t-68 17q-29 10 -29 33q0 10 3 19.5t7 25.5l15 41q10 -4 35.5 -8t52.5 -4q43 0 68.5 14 t25.5 47q0 23 -18.5 33t-43.5 16l-16 4q-16 4 -25.5 10.5t-9.5 20.5q0 20 10.5 42t24.5 44l33 60q-141 27 -215 132t-74 275z" />
<glyph unicode="&#xe8;" horiz-adv-x="1011" d="M170 406q0 111 31.5 231.5t101.5 220.5t177.5 164.5t260.5 64.5q168 0 259.5 -81.5t91.5 -229.5q0 -68 -29 -136.5t-93.5 -124.5t-170 -91t-260.5 -35h-45q0 -88 44 -120.5t109 -32.5q41 0 83 5t71 13q18 4 34.5 9t28.5 5q29 0 40 -19.5t22 -55.5l32 -127 q-74 -39 -174 -66t-215 -27q-90 0 -163.5 30t-126 86t-81 136t-28.5 181zM412 1513h268q43 0 61.5 -11t36.5 -50q55 -139 103 -283h-166q-33 0 -55.5 8.5t-38.5 36.5zM504 588h41q121 0 186.5 46t65.5 118q0 47 -27 72.5t-68 25.5q-68 0 -125 -69.5t-73 -192.5z" />
<glyph unicode="&#xe9;" horiz-adv-x="1011" d="M170 406q0 111 31.5 231.5t101.5 220.5t177.5 164.5t260.5 64.5q168 0 259.5 -81.5t91.5 -229.5q0 -68 -29 -136.5t-93.5 -124.5t-170 -91t-260.5 -35h-45q0 -88 44 -120.5t109 -32.5q41 0 83 5t71 13q18 4 34.5 9t28.5 5q29 0 40 -19.5t22 -55.5l32 -127 q-74 -39 -174 -66t-215 -27q-90 0 -163.5 30t-126 86t-81 136t-28.5 181zM504 588h41q121 0 186.5 46t65.5 118q0 47 -27 72.5t-68 25.5q-68 0 -125 -69.5t-73 -192.5zM580 1198q0 16 12 39q45 76 94 145.5t99 133.5h253q45 0 46 -33q0 -16 -13.5 -34.5t-32.5 -35.5 l-249 -244h-174q-35 0 -35 29z" />
<glyph unicode="&#xea;" horiz-adv-x="1011" d="M170 406q0 111 31.5 231.5t101.5 220.5t177.5 164.5t260.5 64.5q168 0 259.5 -81.5t91.5 -229.5q0 -68 -29 -136.5t-93.5 -124.5t-170 -91t-260.5 -35h-45q0 -88 44 -120.5t109 -32.5q41 0 83 5t71 13q18 4 34.5 9t28.5 5q29 0 40 -19.5t22 -55.5l32 -127 q-74 -39 -174 -66t-215 -27q-90 0 -163.5 30t-126 86t-81 136t-28.5 181zM412 1196q0 16 14 41q53 84 117 152.5t121 126.5h221q29 0 44 -13.5t34 -50.5q31 -59 57.5 -137t42.5 -146h-174q-33 0 -44 7.5t-23 42.5l-45 127l-138 -177h-192q-35 0 -35 27zM504 588h41 q121 0 186.5 46t65.5 118q0 47 -27 72.5t-68 25.5q-68 0 -125 -69.5t-73 -192.5z" />
<glyph unicode="&#xeb;" horiz-adv-x="1011" d="M170 406q0 111 31.5 231.5t101.5 220.5t177.5 164.5t260.5 64.5q168 0 259.5 -81.5t91.5 -229.5q0 -68 -29 -136.5t-93.5 -124.5t-170 -91t-260.5 -35h-45q0 -88 44 -120.5t109 -32.5q41 0 83 5t71 13q18 4 34.5 9t28.5 5q29 0 40 -19.5t22 -55.5l32 -127 q-74 -39 -174 -66t-215 -27q-90 0 -163.5 30t-126 86t-81 136t-28.5 181zM373 1286q0 102 54.5 147.5t148.5 45.5q154 0 153 -119q0 -98 -52 -145.5t-148 -47.5q-78 0 -117 32t-39 87zM504 588h41q121 0 186.5 46t65.5 118q0 47 -27 72.5t-68 25.5q-68 0 -125 -69.5 t-73 -192.5zM815 1286q0 102 54.5 147.5t148.5 45.5q154 0 154 -119q0 -98 -52.5 -145.5t-148.5 -47.5q-78 0 -117 32t-39 87z" />
<glyph unicode="&#xec;" horiz-adv-x="548" d="M119 55q0 18 7 59.5t13 69.5l178 879h248q49 0 61.5 -17.5t12.5 -37.5q0 -10 -2 -27.5t-5 -37t-7 -38t-7 -28.5l-178 -877h-250q-47 0 -59 17.5t-12 37.5zM185 1513h268q43 0 61.5 -11t36.5 -50q55 -139 103 -283h-166q-33 0 -55.5 8.5t-38.5 36.5z" />
<glyph unicode="&#xed;" horiz-adv-x="548" d="M119 55q0 18 7 59.5t13 69.5l178 879h248q49 0 61.5 -17.5t12.5 -37.5q0 -10 -2 -27.5t-5 -37t-7 -38t-7 -28.5l-178 -877h-250q-47 0 -59 17.5t-12 37.5zM336 1198q0 16 12 39q45 76 94 145.5t99 133.5h253q45 0 46 -33q0 -16 -13.5 -34.5t-32.5 -35.5l-249 -244h-174 q-35 0 -35 29z" />
<glyph unicode="&#xee;" horiz-adv-x="548" d="M119 55q0 18 7 59.5t13 69.5l178 879h248q49 0 61.5 -17.5t12.5 -37.5q0 -10 -2 -27.5t-5 -37t-7 -38t-7 -28.5l-178 -877h-250q-47 0 -59 17.5t-12 37.5zM180 1196q0 16 14 41q53 84 117 152.5t121 126.5h221q29 0 44 -13.5t34 -50.5q31 -59 57.5 -137t42.5 -146h-174 q-33 0 -44 7.5t-23 42.5l-45 127l-138 -177h-192q-35 0 -35 27z" />
<glyph unicode="&#xef;" horiz-adv-x="548" d="M119 55q0 18 7 59.5t13 69.5l178 879h248q49 0 61.5 -17.5t12.5 -37.5q0 -10 -2 -27.5t-5 -37t-7 -38t-7 -28.5l-178 -877h-250q-47 0 -59 17.5t-12 37.5zM119 1286q0 102 54.5 147.5t148.5 45.5q154 0 153 -119q0 -98 -52 -145.5t-148 -47.5q-78 0 -117 32t-39 87z M561 1286q0 102 54.5 147.5t148.5 45.5q154 0 154 -119q0 -98 -52.5 -145.5t-148.5 -47.5q-78 0 -117 32t-39 87z" />
<glyph unicode="&#xf0;" horiz-adv-x="1132" d="M186 375q0 133 35 247.5t102.5 197.5t165 130t224.5 47q51 0 100 -14q-6 41 -17.5 92t-27.5 86l-137 -49q-16 -4 -36 -11t-36 -7q-20 0 -30.5 18t-18.5 47l-18 70l204 74q-29 47 -64.5 95t-76.5 95h270q25 0 38.5 -9t23.5 -24l47 -71l119 43q16 4 35.5 10t35.5 6 q20 0 30.5 -18.5t19.5 -47.5l18 -69l-172 -62q51 -92 82 -215t31 -288q0 -172 -35 -314.5t-105.5 -245t-176 -159t-247.5 -56.5q-84 0 -154.5 26t-120.5 76t-79 124.5t-29 175.5zM508 383q0 -29 3 -55.5t13.5 -48t27.5 -36t46 -14.5q57 0 96 53.5t62.5 132.5t33 169t9.5 164 v22q-18 6 -40 10t-44 4q-49 0 -88 -33.5t-65.5 -89t-40 -128t-13.5 -150.5z" />
<glyph unicode="&#xf1;" horiz-adv-x="1107" d="M121 55q0 8 3 26.5t6 38t6 37t5 27.5l174 879h189q39 0 53 -9.5t18 -35.5l9 -74q47 57 125.5 100t177.5 43q113 0 185.5 -67.5t72.5 -196.5q0 -66 -8.5 -122t-18.5 -111l-119 -590h-241q-51 0 -64.5 17.5t-13.5 39.5q0 8 2 23.5t5 34t6 38t7 33.5l86 439q4 23 11.5 58.5 t7.5 61.5q0 33 -19.5 50.5t-48.5 17.5q-49 0 -86 -23.5t-59 -44.5l-150 -745h-249q-47 0 -59.5 17.5t-12.5 37.5zM430 1227q0 47 18.5 93t52 82t78.5 58.5t101 22.5q41 0 82 -11.5t82 -44.5q23 -18 46 -37.5t48 -19.5q35 0 53 107h127q33 0 41 -10.5t8 -30.5 q0 -47 -18.5 -93.5t-52 -83t-81 -59t-104.5 -22.5q-39 0 -79 11t-74 40q-20 16 -45 38.5t-50 22.5q-23 0 -35 -27.5t-22 -78.5h-127q-33 0 -41 10t-8 33z" />
<glyph unicode="&#xf2;" horiz-adv-x="1107" d="M168 387q0 135 37 261t108.5 223.5t177 156.5t242.5 59q90 0 166 -26.5t130 -78.5t85 -130t31 -178q0 -135 -37 -261t-108.5 -223.5t-177 -157t-242.5 -59.5q-90 0 -166 27t-130.5 79t-85 129t-30.5 179zM387 1513h268q43 0 61.5 -11t36.5 -50q55 -139 103 -283h-166 q-33 0 -55.5 8.5t-38.5 36.5zM498 379q0 -55 20.5 -102.5t81.5 -47.5q51 0 91 40t67.5 104.5t42 145.5t14.5 163q0 55 -20.5 102t-81.5 47q-51 0 -91 -39.5t-68 -104t-42 -145.5t-14 -163z" />
<glyph unicode="&#xf3;" horiz-adv-x="1107" d="M168 387q0 135 37 261t108.5 223.5t177 156.5t242.5 59q90 0 166 -26.5t130 -78.5t85 -130t31 -178q0 -135 -37 -261t-108.5 -223.5t-177 -157t-242.5 -59.5q-90 0 -166 27t-130.5 79t-85 129t-30.5 179zM498 379q0 -55 20.5 -102.5t81.5 -47.5q51 0 91 40t67.5 104.5 t42 145.5t14.5 163q0 55 -20.5 102t-81.5 47q-51 0 -91 -39.5t-68 -104t-42 -145.5t-14 -163zM627 1198q0 16 12 39q45 76 94 145.5t99 133.5h253q45 0 46 -33q0 -16 -13.5 -34.5t-32.5 -35.5l-249 -244h-174q-35 0 -35 29z" />
<glyph unicode="&#xf4;" horiz-adv-x="1107" d="M168 387q0 135 37 261t108.5 223.5t177 156.5t242.5 59q90 0 166 -26.5t130 -78.5t85 -130t31 -178q0 -135 -37 -261t-108.5 -223.5t-177 -157t-242.5 -59.5q-90 0 -166 27t-130.5 79t-85 129t-30.5 179zM457 1196q0 16 14 41q53 84 117 152.5t121 126.5h221 q29 0 44 -13.5t34 -50.5q31 -59 57.5 -137t42.5 -146h-174q-33 0 -44 7.5t-23 42.5l-45 127l-138 -177h-192q-35 0 -35 27zM498 379q0 -55 20.5 -102.5t81.5 -47.5q51 0 91 40t67.5 104.5t42 145.5t14.5 163q0 55 -20.5 102t-81.5 47q-51 0 -91 -39.5t-68 -104t-42 -145.5 t-14 -163z" />
<glyph unicode="&#xf5;" horiz-adv-x="1107" d="M168 387q0 135 37 261t108.5 223.5t177 156.5t242.5 59q90 0 166 -26.5t130 -78.5t85 -130t31 -178q0 -135 -37 -261t-108.5 -223.5t-177 -157t-242.5 -59.5q-90 0 -166 27t-130.5 79t-85 129t-30.5 179zM436 1227q0 47 18.5 93t52 82t78.5 58.5t101 22.5q41 0 82 -11.5 t82 -44.5q23 -18 46 -37.5t48 -19.5q35 0 53 107h127q33 0 41 -10.5t8 -30.5q0 -47 -18.5 -93.5t-52 -83t-81 -59t-104.5 -22.5q-39 0 -79 11t-74 40q-20 16 -45 38.5t-50 22.5q-23 0 -35 -27.5t-22 -78.5h-127q-33 0 -41 10t-8 33zM498 379q0 -55 20.5 -102.5t81.5 -47.5 q51 0 91 40t67.5 104.5t42 145.5t14.5 163q0 55 -20.5 102t-81.5 47q-51 0 -91 -39.5t-68 -104t-42 -145.5t-14 -163z" />
<glyph unicode="&#xf6;" horiz-adv-x="1107" d="M168 387q0 135 37 261t108.5 223.5t177 156.5t242.5 59q90 0 166 -26.5t130 -78.5t85 -130t31 -178q0 -135 -37 -261t-108.5 -223.5t-177 -157t-242.5 -59.5q-90 0 -166 27t-130.5 79t-85 129t-30.5 179zM391 1286q0 102 54.5 147.5t148.5 45.5q154 0 153 -119 q0 -98 -52 -145.5t-148 -47.5q-78 0 -117 32t-39 87zM498 379q0 -55 20.5 -102.5t81.5 -47.5q51 0 91 40t67.5 104.5t42 145.5t14.5 163q0 55 -20.5 102t-81.5 47q-51 0 -91 -39.5t-68 -104t-42 -145.5t-14 -163zM833 1286q0 102 54.5 147.5t148.5 45.5q154 0 154 -119 q0 -98 -52.5 -145.5t-148.5 -47.5q-78 0 -117 32t-39 87z" />
<glyph unicode="&#xf7;" d="M248 606q0 10 4 36t8 50l29 142h770q63 0 63 -54q0 -10 -3 -35.5t-7 -50.5l-29 -141h-770q-66 0 -65 53zM453 289q0 94 51 141t137 47q78 0 115 -35.5t37 -89.5q0 -94 -51.5 -142t-139.5 -48q-74 0 -111.5 37t-37.5 90zM573 1034q0 94 51.5 141.5t137.5 47.5 q78 0 114.5 -36t36.5 -89q0 -94 -51 -142.5t-139 -48.5q-74 0 -112 37t-38 90z" />
<glyph unicode="&#xf8;" horiz-adv-x="1107" d="M72 -10q0 6 1 12t11 18l133 148q-49 88 -49 219q0 135 37 261t108.5 223.5t177 156.5t242.5 59q147 0 252 -69l78 86h141q12 0 21.5 -7t9.5 -18q0 -4 -1 -12t-11 -20l-131 -146q53 -94 53 -227q0 -135 -37 -261t-108.5 -223.5t-177 -157t-242.5 -59.5q-158 0 -265 76 l-77 -86h-136q-10 0 -20 7t-10 20zM485 465l320 352q-14 20 -34.5 32.5t-51.5 12.5q-49 0 -89 -33.5t-70 -89t-48 -127t-27 -147.5zM502 254q12 -25 34.5 -40t57.5 -15q49 0 90 34.5t70.5 93t48 132t24.5 153.5z" />
<glyph unicode="&#xf9;" horiz-adv-x="1122" d="M168 240q0 66 8 122t19 111l118 590h242q51 0 64.5 -17.5t13.5 -39.5q0 -8 -2 -23.5t-5 -34t-7.5 -38t-6.5 -33.5l-86 -439q-4 -23 -11 -58.5t-7 -62.5q0 -33 19.5 -50t47.5 -17q49 0 86 23.5t60 43.5l149 746h250q47 0 59.5 -17.5t12.5 -37.5q0 -10 -3 -27.5t-6 -37 t-6 -38t-6 -26.5l-88 -447q-10 -51 -18 -111.5t-14.5 -120t-10.5 -111.5t-4 -89h-174q-41 0 -57.5 13.5t-24.5 47.5l-18 68q-66 -78 -152 -116t-184 -38q-113 0 -185.5 68t-72.5 197zM398 1513h268q43 0 61.5 -11t36.5 -50q55 -139 103 -283h-166q-33 0 -55.5 8.5 t-38.5 36.5z" />
<glyph unicode="&#xfa;" horiz-adv-x="1122" d="M168 240q0 66 8 122t19 111l118 590h242q51 0 64.5 -17.5t13.5 -39.5q0 -8 -2 -23.5t-5 -34t-7.5 -38t-6.5 -33.5l-86 -439q-4 -23 -11 -58.5t-7 -62.5q0 -33 19.5 -50t47.5 -17q49 0 86 23.5t60 43.5l149 746h250q47 0 59.5 -17.5t12.5 -37.5q0 -10 -3 -27.5t-6 -37 t-6 -38t-6 -26.5l-88 -447q-10 -51 -18 -111.5t-14.5 -120t-10.5 -111.5t-4 -89h-174q-41 0 -57.5 13.5t-24.5 47.5l-18 68q-66 -78 -152 -116t-184 -38q-113 0 -185.5 68t-72.5 197zM633 1198q0 16 12 39q45 76 94 145.5t99 133.5h253q45 0 46 -33q0 -16 -13.5 -34.5 t-32.5 -35.5l-249 -244h-174q-35 0 -35 29z" />
<glyph unicode="&#xfb;" horiz-adv-x="1122" d="M168 240q0 66 8 122t19 111l118 590h242q51 0 64.5 -17.5t13.5 -39.5q0 -8 -2 -23.5t-5 -34t-7.5 -38t-6.5 -33.5l-86 -439q-4 -23 -11 -58.5t-7 -62.5q0 -33 19.5 -50t47.5 -17q49 0 86 23.5t60 43.5l149 746h250q47 0 59.5 -17.5t12.5 -37.5q0 -10 -3 -27.5t-6 -37 t-6 -38t-6 -26.5l-88 -447q-10 -51 -18 -111.5t-14.5 -120t-10.5 -111.5t-4 -89h-174q-41 0 -57.5 13.5t-24.5 47.5l-18 68q-66 -78 -152 -116t-184 -38q-113 0 -185.5 68t-72.5 197zM428 1196q0 16 14 41q53 84 117 152.5t121 126.5h221q29 0 44 -13.5t34 -50.5 q31 -59 57.5 -137t42.5 -146h-174q-33 0 -44 7.5t-23 42.5l-45 127l-138 -177h-192q-35 0 -35 27z" />
<glyph unicode="&#xfc;" horiz-adv-x="1122" d="M168 240q0 66 8 122t19 111l118 590h242q51 0 64.5 -17.5t13.5 -39.5q0 -8 -2 -23.5t-5 -34t-7.5 -38t-6.5 -33.5l-86 -439q-4 -23 -11 -58.5t-7 -62.5q0 -33 19.5 -50t47.5 -17q49 0 86 23.5t60 43.5l149 746h250q47 0 59.5 -17.5t12.5 -37.5q0 -10 -3 -27.5t-6 -37 t-6 -38t-6 -26.5l-88 -447q-10 -51 -18 -111.5t-14.5 -120t-10.5 -111.5t-4 -89h-174q-41 0 -57.5 13.5t-24.5 47.5l-18 68q-66 -78 -152 -116t-184 -38q-113 0 -185.5 68t-72.5 197zM414 1286q0 102 54.5 147.5t148.5 45.5q154 0 153 -119q0 -98 -52 -145.5t-148 -47.5 q-78 0 -117 32t-39 87zM856 1286q0 102 54.5 147.5t148.5 45.5q154 0 154 -119q0 -98 -52.5 -145.5t-148.5 -47.5q-78 0 -117 32t-39 87z" />
<glyph unicode="&#xfd;" horiz-adv-x="1048" d="M-6 -240q0 37 12 80l19 70q10 -2 27.5 -3t33.5 -1q92 0 162.5 48t136.5 142q-25 53 -51.5 132t-49 175.5t-37 208t-14.5 232.5v33.5t1.5 42t2.5 59.5t5 84h258q45 0 56 -16.5t11 -75.5v-129q0 -145 8.5 -262t18.5 -209q78 156 143.5 334t120.5 358h232q45 0 57 -14.5 t12 -36.5q0 -31 -15.5 -79t-29.5 -93q-27 -90 -77 -201t-109.5 -223.5t-124 -217t-121.5 -180.5q-129 -176 -258 -275t-279 -99q-59 0 -105 27.5t-46 88.5zM576 1198q0 16 12 39q45 76 94 145.5t99 133.5h253q45 0 46 -33q0 -16 -13.5 -34.5t-32.5 -35.5l-249 -244h-174 q-35 0 -35 29z" />
<glyph unicode="&#xfe;" horiz-adv-x="1107" d="M94 -293q0 16 4 36.5t8 43.5l340 1683h242q41 0 60.5 -11t19.5 -50q0 -16 -4 -37.5t-8 -40.5l-64 -313q31 29 80 49t100 20q147 0 225.5 -103t78.5 -300q0 -96 -26 -215t-81 -223.5t-144 -175t-216 -70.5q-59 0 -119 22.5t-90 61.5l-88 -432h-236q-29 0 -55.5 7t-26.5 48 zM545 293q35 -23 94 -23q53 0 90 38t60.5 94.5t35 123t15.5 123.5v27q0 143 -86 143q-33 0 -58.5 -10t-54.5 -31z" />
<glyph unicode="&#xff;" horiz-adv-x="1048" d="M-6 -240q0 37 12 80l19 70q10 -2 27.5 -3t33.5 -1q92 0 162.5 48t136.5 142q-25 53 -51.5 132t-49 175.5t-37 208t-14.5 232.5v33.5t1.5 42t2.5 59.5t5 84h258q45 0 56 -16.5t11 -75.5v-129q0 -145 8.5 -262t18.5 -209q78 156 143.5 334t120.5 358h232q45 0 57 -14.5 t12 -36.5q0 -31 -15.5 -79t-29.5 -93q-27 -90 -77 -201t-109.5 -223.5t-124 -217t-121.5 -180.5q-129 -176 -258 -275t-279 -99q-59 0 -105 27.5t-46 88.5zM330 1286q0 102 54.5 147.5t148.5 45.5q154 0 153 -119q0 -98 -52 -145.5t-148 -47.5q-78 0 -117 32t-39 87z M772 1286q0 102 54.5 147.5t148.5 45.5q154 0 154 -119q0 -98 -52.5 -145.5t-148.5 -47.5q-78 0 -117 32t-39 87z" />
<glyph unicode="&#x152;" horiz-adv-x="1640" d="M213 465q0 205 55.5 384t154.5 311t234 209t295 77q41 0 92.5 -6t94.5 -21h587q63 0 64 -53q0 -10 -4 -35.5t-8 -50.5l-27 -143h-463l-51 -271h322q63 0 63 -53q0 -10 -4 -35.5t-8 -50.5l-29 -143h-401l-58 -301h396q63 0 63 -54q0 -10 -4 -35.5t-8 -50.5l-27 -143h-665 q-47 -12 -102.5 -20.5t-121.5 -8.5q-209 0 -324.5 124t-115.5 370zM567 502q0 -119 39 -174.5t137 -55.5h45l170 875q-96 -8 -168.5 -66.5t-122 -148.5t-75 -202t-25.5 -228z" />
<glyph unicode="&#x153;" horiz-adv-x="1640" d="M168 387q0 135 37 261t109.5 223.5t180 156.5t246.5 59q104 0 175 -39.5t108 -105.5q47 53 131 99t195 46q178 0 274 -80.5t96 -230.5q0 -68 -28.5 -136.5t-93 -124.5t-170 -91t-261.5 -35h-45q0 -88 44 -120.5t110 -32.5q41 0 83 7t71 15q18 4 34.5 9t28.5 5 q29 0 40 -19.5t21 -55.5l33 -131q-72 -37 -151.5 -65t-190.5 -28q-106 0 -195 44t-130 139q-29 -37 -62 -70t-75 -57.5t-95 -40t-121 -15.5q-186 0 -292.5 111t-106.5 303zM498 379q0 -55 19.5 -102.5t80.5 -47.5q51 0 92 40t68.5 104.5t42 145.5t14.5 163q0 55 -20.5 102 t-81.5 47q-51 0 -91 -39.5t-68 -104t-42 -145.5t-14 -163zM1133 590h43q119 0 182 45t63 117q0 45 -26.5 70.5t-63.5 25.5q-59 0 -111.5 -53.5t-74.5 -147.5z" />
<glyph unicode="&#x178;" horiz-adv-x="1073" d="M293 1419h299q47 0 55 -24.5t8 -67.5q0 -96 5.5 -211t29.5 -280q102 178 169 320t110 263h248q72 0 71 -57q1 -31 -22 -80q-35 -80 -78 -168t-99.5 -184t-129 -201.5t-166.5 -222.5l-99 -506h-256q-41 0 -56 15.5t-15 43.5q0 20 12 80t24 125l52 268q-76 233 -115 446.5 t-47 440.5zM438 1642q0 102 54.5 147.5t148.5 45.5q154 0 153 -119q0 -98 -52 -145.5t-148 -47.5q-78 0 -117 32t-39 87zM880 1642q0 102 54.5 147.5t148.5 45.5q154 0 154 -119q0 -98 -52.5 -145.5t-148.5 -47.5q-78 0 -117 32t-39 87z" />
<glyph unicode="&#x2c6;" horiz-adv-x="892" d="M86 1196q0 16 14 41q53 84 117 152.5t121 126.5h221q29 0 44 -13.5t34 -50.5q31 -59 57.5 -137t42.5 -146h-174q-33 0 -44 7.5t-23 42.5l-45 127l-138 -177h-192q-35 0 -35 27z" />
<glyph unicode="&#x2dc;" horiz-adv-x="892" d="M78 1227q0 47 18.5 93t52 82t78.5 58.5t101 22.5q41 0 82 -11.5t82 -44.5q23 -18 46 -37.5t48 -19.5q35 0 53 107h127q33 0 41 -10.5t8 -30.5q0 -47 -18.5 -93.5t-52 -83t-81 -59t-104.5 -22.5q-39 0 -79 11t-74 40q-20 16 -45 38.5t-50 22.5q-23 0 -35 -27.5t-22 -78.5 h-127q-33 0 -41 10t-8 33z" />
<glyph unicode="&#x2000;" horiz-adv-x="964" />
<glyph unicode="&#x2001;" horiz-adv-x="1929" />
<glyph unicode="&#x2002;" horiz-adv-x="964" />
<glyph unicode="&#x2003;" horiz-adv-x="1929" />
<glyph unicode="&#x2004;" horiz-adv-x="643" />
<glyph unicode="&#x2005;" horiz-adv-x="482" />
<glyph unicode="&#x2006;" horiz-adv-x="321" />
<glyph unicode="&#x2007;" horiz-adv-x="321" />
<glyph unicode="&#x2008;" horiz-adv-x="241" />
<glyph unicode="&#x2009;" horiz-adv-x="385" />
<glyph unicode="&#x200a;" horiz-adv-x="107" />
<glyph unicode="&#x2010;" horiz-adv-x="768" d="M152 461q0 10 4 35.5t8 50.5l33 166h548q63 0 64 -54q0 -10 -4 -35.5t-8 -52.5l-33 -163h-547q-66 0 -65 53z" />
<glyph unicode="&#x2011;" horiz-adv-x="768" d="M152 461q0 10 4 35.5t8 50.5l33 166h548q63 0 64 -54q0 -10 -4 -35.5t-8 -52.5l-33 -163h-547q-66 0 -65 53z" />
<glyph unicode="&#x2012;" horiz-adv-x="768" d="M152 461q0 10 4 35.5t8 50.5l33 166h548q63 0 64 -54q0 -10 -4 -35.5t-8 -52.5l-33 -163h-547q-66 0 -65 53z" />
<glyph unicode="&#x2013;" horiz-adv-x="1064" d="M68 506l55 276h1059l-56 -276h-1058z" />
<glyph unicode="&#x2014;" horiz-adv-x="2088" d="M51 506l55 276h2118l-55 -276h-2118z" />
<glyph unicode="&#x2018;" horiz-adv-x="532" d="M252 987q0 86 44 161t101 146l105 138h121q23 0 37 -7.5t14 -29.5q0 -23 -31 -64l-111 -164q45 -12 71 -39.5t26 -68.5q0 -104 -57.5 -156.5t-155.5 -52.5q-78 0 -121 39t-43 98z" />
<glyph unicode="&#x2019;" horiz-adv-x="532" d="M262 881q0 16 8.5 32.5t20.5 34.5l110 164q-45 12 -70.5 40t-25.5 69q0 104 57.5 156.5t155.5 52.5q78 0 122 -39.5t44 -102.5q0 -86 -45 -160.5t-102 -146.5l-105 -133h-121q-23 0 -36 7t-13 26z" />
<glyph unicode="&#x201a;" horiz-adv-x="532" d="M86 -201q0 16 8 32.5t21 35.5l110 164q-45 12 -70.5 39.5t-25.5 68.5q0 104 57.5 156.5t155.5 52.5q78 0 122 -39t44 -102q0 -86 -45 -161t-103 -146l-104 -133h-121q-23 0 -36 7t-13 25z" />
<glyph unicode="&#x201c;" horiz-adv-x="997" d="M252 987q0 86 44 161t101 146l105 138h121q23 0 37 -7.5t14 -29.5q0 -23 -31 -64l-111 -164q45 -12 71 -39.5t26 -68.5q0 -104 -57.5 -156.5t-155.5 -52.5q-78 0 -121 39t-43 98zM717 987q0 86 44 161t101 146l105 138h121q23 0 37 -7.5t14 -29.5q0 -23 -31 -64 l-111 -164q45 -12 71 -39.5t26 -68.5q0 -104 -57.5 -156.5t-155.5 -52.5q-78 0 -121 39t-43 98z" />
<glyph unicode="&#x201d;" horiz-adv-x="997" d="M262 881q0 16 8.5 32.5t20.5 34.5l110 164q-45 12 -70.5 40t-25.5 69q0 104 57.5 156.5t155.5 52.5q78 0 122 -39.5t44 -102.5q0 -86 -45 -160.5t-102 -146.5l-105 -133h-121q-23 0 -36 7t-13 26zM727 881q0 16 8.5 32.5t20.5 34.5l110 164q-45 12 -70.5 40t-25.5 69 q0 104 57.5 156.5t155.5 52.5q78 0 122 -39.5t44 -102.5q0 -86 -45 -160.5t-102 -146.5l-105 -133h-121q-23 0 -36 7t-13 26z" />
<glyph unicode="&#x201e;" horiz-adv-x="997" d="M86 -201q0 16 8 32.5t21 35.5l110 164q-45 12 -70.5 39.5t-25.5 68.5q0 104 57.5 156.5t155.5 52.5q78 0 122 -39t44 -102q0 -86 -45 -161t-103 -146l-104 -133h-121q-23 0 -36 7t-13 25zM551 -201q0 16 8 32.5t21 35.5l110 164q-45 12 -70.5 39.5t-25.5 68.5 q0 104 57.5 156.5t155.5 52.5q78 0 122 -39t44 -102q0 -86 -45 -161t-103 -146l-104 -133h-121q-23 0 -36 7t-13 25z" />
<glyph unicode="&#x2022;" horiz-adv-x="913" d="M225 649q0 195 108.5 292t287.5 97q154 0 233.5 -70.5t79.5 -185.5q0 -193 -105.5 -292t-287.5 -99q-154 0 -235 72t-81 186z" />
<glyph unicode="&#x2026;" horiz-adv-x="1781" d="M103 129q0 111 60.5 165t162.5 54q86 0 130 -40t44 -103q0 -111 -58.5 -166t-162.5 -55q-86 0 -131 41t-45 104zM692 129q0 111 60.5 165t162.5 54q86 0 130 -40t44 -103q0 -111 -58.5 -166t-162.5 -55q-86 0 -131 41t-45 104zM1284 129q0 111 60.5 165t162.5 54 q86 0 130 -40t44 -103q0 -111 -58.5 -166t-162.5 -55q-86 0 -131 41t-45 104z" />
<glyph unicode="&#x202f;" horiz-adv-x="385" />
<glyph unicode="&#x2039;" horiz-adv-x="561" d="M143 530l267 398h192q47 0 47 -39q0 -10 -3 -24.5t-9 -24.5l-201 -310l82 -397h-196q-31 0 -52.5 14.5t-31.5 55.5z" />
<glyph unicode="&#x203a;" horiz-adv-x="561" d="M106 172q0 10 3.5 24.5t9.5 24.5l200 309l-81 398h196q31 0 52.5 -14.5t31.5 -55.5l94 -328l-266 -397h-192q-47 0 -48 39z" />
<glyph unicode="&#x205f;" horiz-adv-x="482" />
<glyph unicode="&#x20ac;" d="M178 494q0 10 3 31.5t9 45.5l15 64h96q4 35 10 67.5t13 65.5h-19q-66 0 -65 51q0 10 4 31.5t10 46.5l14 64h117q90 215 255 338.5t384 125.5q41 0 87 -6t86 -19.5t66.5 -32.5t26.5 -46q0 -23 -10 -55.5t-20 -65.5l-23 -61q-29 10 -80 21t-113 11q-135 0 -223 -58 t-141 -152h328q63 0 63 -54q0 -10 -5 -28.5t-9 -42.5l-15 -68h-432q-12 -63 -18 -133h350q63 0 64 -53q0 -10 -4.5 -28.5t-8.5 -43.5l-12 -68h-395q2 -51 11 -90t31.5 -66.5t61.5 -42t101 -14.5q31 0 82 5.5t98 17.5q12 4 27.5 7t25.5 3q27 0 37 -21.5t14 -47.5l21 -134 q-49 -29 -135.5 -58.5t-206.5 -29.5q-217 0 -336 120t-125 351h-49q-66 0 -66 52z" />
<glyph unicode="&#x2122;" horiz-adv-x="1513" d="M283 1280q0 10 4 36.5t8 51.5l10 51h469q63 0 64 -53q0 -10 -1 -19.5t-6 -35.5l-14 -84h-162l-118 -572h-127q-47 0 -59.5 17.5t-12.5 38.5q0 18 7 59t13 70l80 387h-90q-66 0 -65 53zM770 709q0 4 5 35.5t9 54.5q14 63 26.5 119.5t30 124t41 156.5t58.5 220h217 q27 0 39 -9t16 -34l13 -338l172 381h209q25 0 35 -10t10 -27v-10q-6 -61 -17.5 -142t-27 -174t-34 -195.5t-38.5 -205.5h-127q-47 0 -59.5 17.5t-12.5 34.5q0 4 3 20t8 39l84 438l-175 -354h-96q-35 0 -46 14.5t-11 26.5l-23 311l-110 -547h-133q-43 0 -54.5 18.5 t-11.5 35.5z" />
<glyph unicode="&#xe000;" horiz-adv-x="1064" d="M0 0v1065h1065v-1065h-1065z" />
</font>
</defs>
</svg>
